<?xml version="1.0" encoding="UTF-8" standalone="no"?>
<!-- Created with Inkscape (http://www.inkscape.org/) -->

<svg
   xmlns:dc="http://purl.org/dc/elements/1.1/"
   xmlns:cc="http://creativecommons.org/ns#"
   xmlns:rdf="http://www.w3.org/1999/02/22-rdf-syntax-ns#"
   xmlns:svg="http://www.w3.org/2000/svg"
   xmlns="http://www.w3.org/2000/svg"
   xmlns:sodipodi="http://sodipodi.sourceforge.net/DTD/sodipodi-0.dtd"
   xmlns:inkscape="http://www.inkscape.org/namespaces/inkscape"
   width="210mm"
   height="297mm"
   id="svg3040"
   version="1.1"
   inkscape:version="0.48.4 r9939"
   sodipodi:docname="carremaster.svg">
  <defs
     id="defs3042" />
  <sodipodi:namedview
     id="base"
     pagecolor="#ffffff"
     bordercolor="#666666"
     borderopacity="1.0"
     inkscape:pageopacity="0.0"
     inkscape:pageshadow="2"
     inkscape:zoom="0.49497475"
     inkscape:cx="-96.147461"
     inkscape:cy="472.66131"
     inkscape:document-units="px"
     inkscape:current-layer="layer1"
     showgrid="false"
     inkscape:window-width="1600"
     inkscape:window-height="876"
     inkscape:window-x="0"
     inkscape:window-y="24"
     inkscape:window-maximized="1" />
  <metadata
     id="metadata3045">
    <rdf:RDF>
      <cc:Work
         rdf:about="">
        <dc:format>image/svg+xml</dc:format>
        <dc:type
           rdf:resource="http://purl.org/dc/dcmitype/StillImage" />
        <dc:title></dc:title>
      </cc:Work>
    </rdf:RDF>
  </metadata>
  <g
     inkscape:label="Calque 1"
     inkscape:groupmode="layer"
     id="layer1">
    <g
       id="g4014"
       transform="matrix(0.83929584,0,0,0.83929584,485.76513,136.71938)">
      <path
         id="path3229"
         d="m -153.46875,473.625 c -113.37051,1.04222 -228.69582,41.89416 -312.65625,109.0625 -36.10082,204.10845 9.7416,381.80981 126.375,481.7813 C -280.44101,1010.573 -67.284465,924.9467 121.21875,988.125 -6.8544251,830.53281 -31.50277,621.56664 7.375,502.15625 -43.196549,482.10989 -98.101758,473.11601 -153.46875,473.625 z m -7.96875,115.96875 c 16.45327,-0.1243 32.13912,0.79918 46.28125,2.125 -4.04061,50.50763 44.443987,236.39085 109.09375,297 -56.568541,-28.28427 -169.7035,-36.35297 -270.71875,8.09375 -52.52794,-54.54824 -99.00922,-137.40035 -54.5625,-234.375 42.6158,-58.39945 111.14458,-72.39983 169.90625,-72.84375 z"
         style="fill:#ffff00;fill-opacity:1;stroke:none"
         inkscape:connector-curvature="0" />
      <g
         id="g3902"
         transform="matrix(0.67041845,0,0,0.72969844,126.32347,675.41648)">
        <g
           id="g30">
          <path
             id="path3904"
             d="m -958.72,104.88 c 9.0914,31.315 104.05,127.28 225.26,110.11 121.22,-17.173 171.47,-121.18 161.62,-159.6 -76.772,-27.274 -268.7,-23.234 -386.89,49.497 z"
             inkscape:connector-curvature="0"
             style="fill:#ffffff;stroke:#e10000;stroke-width:1px" />
          <path
             id="path3906"
             d="m -971.77,109.89 c -57.579,-93.944 67.02,-252.04 249.51,-240.42 182.49,11.627 157.58,163.64 157.58,185.87 -191.93,-44.447 -343.45,19.193 -407.09,54.548 z"
             inkscape:connector-curvature="0"
             style="fill:#ffff00;fill-opacity:1;stroke:#080000;stroke-width:1px" />
          <path
             id="path3908"
             d="m -850.55,-101.23 c -27.274,41.416 -67.68,127.28 -33.335,125.26 34.345,-2.0203 143.44,-28.284 310.12,20.203 -106.07,-17.173 -207.88,-32.834 -394.97,61.619 -20.75,4.8507 -55.558,-144.45 118.19,-207.08 z"
             inkscape:connector-curvature="0"
             style="fill:#ffc832;fill-opacity:1" />
        </g>
        <path
           id="path3910"
           d="m -841.46,60.392 c 2.0203,40.406 30.314,73.751 81.822,74.751 104.05,2.0203 108.68,-75.249 98.995,-91.924 -56.768,-9.189 -139.4,3.0305 -180.82,17.173 z"
           inkscape:connector-curvature="0"
           style="fill:none;stroke:#e10000;stroke-width:2" />
        <path
           id="path3912"
           d="m -793.56,49.694 c -1e-5,31.315 18.774,50.094 51.099,47.064 42.426,-4.0406 47.477,-35.478 45.457,-55.681 -24.718,-1.362 -67.201,2.8624 -96.556,8.6169 z"
           inkscape:connector-curvature="0"
           style="fill:none;stroke:#e10000;stroke-width:1px" />
        <path
           id="path3914"
           d="m -839.94,62.413 37.376,-6.0609 -36.365,10.102 36.365,-7.5761 -34.85,10.607 35.355,-8.0812 -32.83,12.122 33.84,-9.5964 -33.84,16.162 35.355,-12.627 -32.325,17.173 32.83,-13.132 -28.284,17.678 30.81,-13.637 -28.789,22.223 30.305,-19.193 -24.244,24.749 25.254,-20.203 -19.698,23.234 22.728,-19.193 -16.668,25.759 18.688,-23.234 -12.122,27.274 15.152,-23.234 -8.5863,26.264 12.627,-24.244 -8.5863,28.789 12.122,-26.264 -8.0812,27.274 12.627,-24.749 -6.566,25.759 10.102,-23.234 -2.5254,23.234 5.5558,-22.223 0.50508,23.234 4.5457,-22.728 1.5152,23.234 2.5254,-20.708 4.5457,23.739 0.50508,-22.223 4.5457,21.718 -0.50507,-22.223 4.0406,21.213 v -21.213 l 4.0406,19.698 0.50507,-19.193 3.5355,19.193 2.5254,-20.203 3.0305,20.708 1.5152,-20.203 5.0508,18.183 -1.0102,-19.193 6.0609,16.162 -2.0203,-17.678 7.5761,17.173 -4.0406,-17.173 8.5863,17.173 -6.0609,-18.688 9.5964,15.152 -5.5558,-17.678 11.112,15.657 -8.0812,-18.688 14.142,17.173 -11.617,-21.718 15.657,16.162 -11.112,-19.193 16.162,14.142 -13.132,-19.698 17.678,15.152 -15.152,-19.698 18.183,16.162 -13.637,-19.698 19.193,14.647 -16.668,-18.688 18.183,11.617 -18.183,-15.152 19.193,8.0812 -18.688,-11.617 21.213,6.0609 -20.708,-11.112 22.223,6.0609 -19.193,-11.112 20.708,6.0609 -20.708,-10.102 19.698,4.5457 -18.688,-7.5761 18.688,2.5254 -18.183,-6.0609 c 0,0 15.152,1.0102 23.234,0.50508 4.5457,19.193 6.566,70.206 -70.711,86.873 -32.83,6.0609 -102.03,3.0304 -109.1,-70.711 z"
           inkscape:connector-curvature="0"
           style="fill:#e10000" />
        <path
           id="path3916"
           d="m -768.93,46.648 c 0.71428,11.071 15.357,22.5 30,20.714 14.643,-1.7857 21.071,-14.286 19.643,-25.357 -10.357,1.0714 -28.929,0 -49.643,4.6429 z"
           inkscape:connector-curvature="0"
           style="fill:#ff0000" />
      </g>
      <g
         id="g3918"
         transform="matrix(-0.51670866,0,0,0.6009168,-534.98765,684.01477)">
        <g
           id="g40">
          <path
             id="path3920"
             d="m -958.72,104.88 c 9.0914,31.315 104.05,127.28 225.26,110.11 121.22,-17.173 171.47,-121.18 161.62,-159.6 -76.772,-27.274 -268.7,-23.234 -386.89,49.497 z"
             inkscape:connector-curvature="0"
             style="fill:#ffffff;stroke:#e10000;stroke-width:1px" />
          <path
             id="path3922"
             d="m -971.77,109.89 c -57.579,-93.944 67.02,-252.04 249.51,-240.42 182.49,11.627 157.58,163.64 157.58,185.87 -191.93,-44.447 -343.45,19.193 -407.09,54.548 z"
             inkscape:connector-curvature="0"
             style="fill:#ffff00;fill-opacity:1;stroke:#080000;stroke-width:1px" />
          <path
             id="path3924"
             d="m -850.55,-101.23 c -27.274,41.416 -67.68,127.28 -33.335,125.26 34.345,-2.0203 143.44,-28.284 310.12,20.203 -106.07,-17.173 -207.88,-32.834 -394.97,61.619 -20.75,4.8507 -55.558,-144.45 118.19,-207.08 z"
             inkscape:connector-curvature="0"
             style="fill:#ffc832;fill-opacity:1" />
        </g>
        <path
           id="path3926"
           d="m -841.46,60.392 c 2.0203,40.406 30.314,73.751 81.822,74.751 104.05,2.0203 108.68,-75.249 98.995,-91.924 -56.768,-9.189 -139.4,3.0305 -180.82,17.173 z"
           inkscape:connector-curvature="0"
           style="fill:none;stroke:#e10000;stroke-width:2" />
        <path
           id="path3928"
           d="m -793.56,49.694 c -1e-5,31.315 18.774,50.094 51.099,47.064 42.426,-4.0406 47.477,-35.478 45.457,-55.681 -24.718,-1.362 -67.201,2.8624 -96.556,8.6169 z"
           inkscape:connector-curvature="0"
           style="fill:none;stroke:#e10000;stroke-width:1px" />
        <path
           id="path3930"
           d="m -839.94,62.413 37.376,-6.0609 -36.365,10.102 36.365,-7.5761 -34.85,10.607 35.355,-8.0812 -32.83,12.122 33.84,-9.5964 -33.84,16.162 35.355,-12.627 -32.325,17.173 32.83,-13.132 -28.284,17.678 30.81,-13.637 -28.789,22.223 30.305,-19.193 -24.244,24.749 25.254,-20.203 -19.698,23.234 22.728,-19.193 -16.668,25.759 18.688,-23.234 -12.122,27.274 15.152,-23.234 -8.5863,26.264 12.627,-24.244 -8.5863,28.789 12.122,-26.264 -8.0812,27.274 12.627,-24.749 -6.566,25.759 10.102,-23.234 -2.5254,23.234 5.5558,-22.223 0.50508,23.234 4.5457,-22.728 1.5152,23.234 2.5254,-20.708 4.5457,23.739 0.50508,-22.223 4.5457,21.718 -0.50507,-22.223 4.0406,21.213 v -21.213 l 4.0406,19.698 0.50507,-19.193 3.5355,19.193 2.5254,-20.203 3.0305,20.708 1.5152,-20.203 5.0508,18.183 -1.0102,-19.193 6.0609,16.162 -2.0203,-17.678 7.5761,17.173 -4.0406,-17.173 8.5863,17.173 -6.0609,-18.688 9.5964,15.152 -5.5558,-17.678 11.112,15.657 -8.0812,-18.688 14.142,17.173 -11.617,-21.718 15.657,16.162 -11.112,-19.193 16.162,14.142 -13.132,-19.698 17.678,15.152 -15.152,-19.698 18.183,16.162 -13.637,-19.698 19.193,14.647 -16.668,-18.688 18.183,11.617 -18.183,-15.152 19.193,8.0812 -18.688,-11.617 21.213,6.0609 -20.708,-11.112 22.223,6.0609 -19.193,-11.112 20.708,6.0609 -20.708,-10.102 19.698,4.5457 -18.688,-7.5761 18.688,2.5254 -18.183,-6.0609 c 0,0 15.152,1.0102 23.234,0.50508 4.5457,19.193 6.566,70.206 -70.711,86.873 -32.83,6.0609 -102.03,3.0304 -109.1,-70.711 z"
           inkscape:connector-curvature="0"
           style="fill:#e10000" />
        <path
           id="path3932"
           d="m -768.93,46.648 c 0.71428,11.071 15.357,22.5 30,20.714 14.643,-1.7857 21.071,-14.286 19.643,-25.357 -10.357,1.0714 -28.929,0 -49.643,4.6429 z"
           inkscape:connector-curvature="0"
           style="fill:#ff0000" />
      </g>
      <path
         id="path3934"
         d="m -355.73067,880.93607 c 116.87887,29.59876 161.55141,25.02309 243.61342,-12.67358 -25.34772,43.65313 -63.337,67.82603 -114.06275,61.95991 -60.55117,8.44914 -87.30767,-8.44916 -129.55341,-49.28674 z"
         inkscape:connector-curvature="0"
         style="fill:#ffffff;stroke:#080000;stroke-width:0.69701111" />
      <path
         sodipodi:nodetypes="cccc"
         inkscape:connector-curvature="0"
         id="path4002"
         d="m -440,912.36218 c 7.14286,25.71429 63.70139,132.39382 100.71429,148.57142 20.81928,-14.6335 48.57142,-37.8571 117.14285,-63.57142 -54.38088,20.03572 -135.71428,10.71432 -217.85714,-85 z"
         style="fill:#ffc832;fill-opacity:1;stroke:none" />
      <path
         sodipodi:nodetypes="cccc"
         inkscape:connector-curvature="0"
         id="path4012"
         d="m -202.03051,479.10061 c 35.35534,3.53554 197.9898998,15.65736 193.9492896,92.93404 C -5.555839,536.17423 1.3159919,511.95844 6.5659915,503.34427 -26.263966,486.17168 -129.8046,464.4534 -202.03051,479.10061 z"
         style="fill:#ffc832;fill-opacity:1;stroke:none" />
    </g>
    <g
       transform="matrix(-0.83929584,0,0,0.83929584,215.22844,-364.31628)"
       id="g4038">
      <path
         inkscape:connector-curvature="0"
         style="fill:#ffff00;fill-opacity:1;stroke:none"
         d="m -153.46875,473.625 c -113.37051,1.04222 -228.69582,41.89416 -312.65625,109.0625 -36.10082,204.10845 9.7416,381.80981 126.375,481.7813 C -280.44101,1010.573 -67.284465,924.9467 121.21875,988.125 -6.8544251,830.53281 -31.50277,621.56664 7.375,502.15625 -43.196549,482.10989 -98.101758,473.11601 -153.46875,473.625 z m -7.96875,115.96875 c 16.45327,-0.1243 32.13912,0.79918 46.28125,2.125 -4.04061,50.50763 44.443987,236.39085 109.09375,297 -56.568541,-28.28427 -169.7035,-36.35297 -270.71875,8.09375 -52.52794,-54.54824 -99.00922,-137.40035 -54.5625,-234.375 42.6158,-58.39945 111.14458,-72.39983 169.90625,-72.84375 z"
         id="path4040" />
      <g
         transform="matrix(0.67041845,0,0,0.72969844,126.32347,675.41648)"
         id="g4042">
        <g
           id="g4044">
          <path
             style="fill:#ffffff;stroke:#e10000;stroke-width:1px"
             inkscape:connector-curvature="0"
             d="m -958.72,104.88 c 9.0914,31.315 104.05,127.28 225.26,110.11 121.22,-17.173 171.47,-121.18 161.62,-159.6 -76.772,-27.274 -268.7,-23.234 -386.89,49.497 z"
             id="path4046" />
          <path
             style="fill:#ffff00;fill-opacity:1;stroke:#080000;stroke-width:1px"
             inkscape:connector-curvature="0"
             d="m -971.77,109.89 c -57.579,-93.944 67.02,-252.04 249.51,-240.42 182.49,11.627 157.58,163.64 157.58,185.87 -191.93,-44.447 -343.45,19.193 -407.09,54.548 z"
             id="path4048" />
          <path
             style="fill:#ffc832;fill-opacity:1"
             inkscape:connector-curvature="0"
             d="m -850.55,-101.23 c -27.274,41.416 -67.68,127.28 -33.335,125.26 34.345,-2.0203 143.44,-28.284 310.12,20.203 -106.07,-17.173 -207.88,-32.834 -394.97,61.619 -20.75,4.8507 -55.558,-144.45 118.19,-207.08 z"
             id="path4050" />
        </g>
        <path
           style="fill:none;stroke:#e10000;stroke-width:2"
           inkscape:connector-curvature="0"
           d="m -841.46,60.392 c 2.0203,40.406 30.314,73.751 81.822,74.751 104.05,2.0203 108.68,-75.249 98.995,-91.924 -56.768,-9.189 -139.4,3.0305 -180.82,17.173 z"
           id="path4052" />
        <path
           style="fill:none;stroke:#e10000;stroke-width:1px"
           inkscape:connector-curvature="0"
           d="m -793.56,49.694 c -1e-5,31.315 18.774,50.094 51.099,47.064 42.426,-4.0406 47.477,-35.478 45.457,-55.681 -24.718,-1.362 -67.201,2.8624 -96.556,8.6169 z"
           id="path4054" />
        <path
           style="fill:#e10000"
           inkscape:connector-curvature="0"
           d="m -839.94,62.413 37.376,-6.0609 -36.365,10.102 36.365,-7.5761 -34.85,10.607 35.355,-8.0812 -32.83,12.122 33.84,-9.5964 -33.84,16.162 35.355,-12.627 -32.325,17.173 32.83,-13.132 -28.284,17.678 30.81,-13.637 -28.789,22.223 30.305,-19.193 -24.244,24.749 25.254,-20.203 -19.698,23.234 22.728,-19.193 -16.668,25.759 18.688,-23.234 -12.122,27.274 15.152,-23.234 -8.5863,26.264 12.627,-24.244 -8.5863,28.789 12.122,-26.264 -8.0812,27.274 12.627,-24.749 -6.566,25.759 10.102,-23.234 -2.5254,23.234 5.5558,-22.223 0.50508,23.234 4.5457,-22.728 1.5152,23.234 2.5254,-20.708 4.5457,23.739 0.50508,-22.223 4.5457,21.718 -0.50507,-22.223 4.0406,21.213 v -21.213 l 4.0406,19.698 0.50507,-19.193 3.5355,19.193 2.5254,-20.203 3.0305,20.708 1.5152,-20.203 5.0508,18.183 -1.0102,-19.193 6.0609,16.162 -2.0203,-17.678 7.5761,17.173 -4.0406,-17.173 8.5863,17.173 -6.0609,-18.688 9.5964,15.152 -5.5558,-17.678 11.112,15.657 -8.0812,-18.688 14.142,17.173 -11.617,-21.718 15.657,16.162 -11.112,-19.193 16.162,14.142 -13.132,-19.698 17.678,15.152 -15.152,-19.698 18.183,16.162 -13.637,-19.698 19.193,14.647 -16.668,-18.688 18.183,11.617 -18.183,-15.152 19.193,8.0812 -18.688,-11.617 21.213,6.0609 -20.708,-11.112 22.223,6.0609 -19.193,-11.112 20.708,6.0609 -20.708,-10.102 19.698,4.5457 -18.688,-7.5761 18.688,2.5254 -18.183,-6.0609 c 0,0 15.152,1.0102 23.234,0.50508 4.5457,19.193 6.566,70.206 -70.711,86.873 -32.83,6.0609 -102.03,3.0304 -109.1,-70.711 z"
           id="path4056" />
        <path
           style="fill:#ff0000"
           inkscape:connector-curvature="0"
           d="m -768.93,46.648 c 0.71428,11.071 15.357,22.5 30,20.714 14.643,-1.7857 21.071,-14.286 19.643,-25.357 -10.357,1.0714 -28.929,0 -49.643,4.6429 z"
           id="path4058" />
      </g>
      <g
         transform="matrix(-0.51670866,0,0,0.6009168,-534.98765,684.01477)"
         id="g4060">
        <g
           id="g4062">
          <path
             style="fill:#ffffff;stroke:#e10000;stroke-width:1px"
             inkscape:connector-curvature="0"
             d="m -958.72,104.88 c 9.0914,31.315 104.05,127.28 225.26,110.11 121.22,-17.173 171.47,-121.18 161.62,-159.6 -76.772,-27.274 -268.7,-23.234 -386.89,49.497 z"
             id="path4064" />
          <path
             style="fill:#ffff00;fill-opacity:1;stroke:#080000;stroke-width:1px"
             inkscape:connector-curvature="0"
             d="m -971.77,109.89 c -57.579,-93.944 67.02,-252.04 249.51,-240.42 182.49,11.627 157.58,163.64 157.58,185.87 -191.93,-44.447 -343.45,19.193 -407.09,54.548 z"
             id="path4066" />
          <path
             style="fill:#ffc832;fill-opacity:1"
             inkscape:connector-curvature="0"
             d="m -850.55,-101.23 c -27.274,41.416 -67.68,127.28 -33.335,125.26 34.345,-2.0203 143.44,-28.284 310.12,20.203 -106.07,-17.173 -207.88,-32.834 -394.97,61.619 -20.75,4.8507 -55.558,-144.45 118.19,-207.08 z"
             id="path4068" />
        </g>
        <path
           style="fill:none;stroke:#e10000;stroke-width:2"
           inkscape:connector-curvature="0"
           d="m -841.46,60.392 c 2.0203,40.406 30.314,73.751 81.822,74.751 104.05,2.0203 108.68,-75.249 98.995,-91.924 -56.768,-9.189 -139.4,3.0305 -180.82,17.173 z"
           id="path4070" />
        <path
           style="fill:none;stroke:#e10000;stroke-width:1px"
           inkscape:connector-curvature="0"
           d="m -793.56,49.694 c -1e-5,31.315 18.774,50.094 51.099,47.064 42.426,-4.0406 47.477,-35.478 45.457,-55.681 -24.718,-1.362 -67.201,2.8624 -96.556,8.6169 z"
           id="path4072" />
        <path
           style="fill:#e10000"
           inkscape:connector-curvature="0"
           d="m -839.94,62.413 37.376,-6.0609 -36.365,10.102 36.365,-7.5761 -34.85,10.607 35.355,-8.0812 -32.83,12.122 33.84,-9.5964 -33.84,16.162 35.355,-12.627 -32.325,17.173 32.83,-13.132 -28.284,17.678 30.81,-13.637 -28.789,22.223 30.305,-19.193 -24.244,24.749 25.254,-20.203 -19.698,23.234 22.728,-19.193 -16.668,25.759 18.688,-23.234 -12.122,27.274 15.152,-23.234 -8.5863,26.264 12.627,-24.244 -8.5863,28.789 12.122,-26.264 -8.0812,27.274 12.627,-24.749 -6.566,25.759 10.102,-23.234 -2.5254,23.234 5.5558,-22.223 0.50508,23.234 4.5457,-22.728 1.5152,23.234 2.5254,-20.708 4.5457,23.739 0.50508,-22.223 4.5457,21.718 -0.50507,-22.223 4.0406,21.213 v -21.213 l 4.0406,19.698 0.50507,-19.193 3.5355,19.193 2.5254,-20.203 3.0305,20.708 1.5152,-20.203 5.0508,18.183 -1.0102,-19.193 6.0609,16.162 -2.0203,-17.678 7.5761,17.173 -4.0406,-17.173 8.5863,17.173 -6.0609,-18.688 9.5964,15.152 -5.5558,-17.678 11.112,15.657 -8.0812,-18.688 14.142,17.173 -11.617,-21.718 15.657,16.162 -11.112,-19.193 16.162,14.142 -13.132,-19.698 17.678,15.152 -15.152,-19.698 18.183,16.162 -13.637,-19.698 19.193,14.647 -16.668,-18.688 18.183,11.617 -18.183,-15.152 19.193,8.0812 -18.688,-11.617 21.213,6.0609 -20.708,-11.112 22.223,6.0609 -19.193,-11.112 20.708,6.0609 -20.708,-10.102 19.698,4.5457 -18.688,-7.5761 18.688,2.5254 -18.183,-6.0609 c 0,0 15.152,1.0102 23.234,0.50508 4.5457,19.193 6.566,70.206 -70.711,86.873 -32.83,6.0609 -102.03,3.0304 -109.1,-70.711 z"
           id="path4074" />
        <path
           style="fill:#ff0000"
           inkscape:connector-curvature="0"
           d="m -768.93,46.648 c 0.71428,11.071 15.357,22.5 30,20.714 14.643,-1.7857 21.071,-14.286 19.643,-25.357 -10.357,1.0714 -28.929,0 -49.643,4.6429 z"
           id="path4076" />
      </g>
      <path
         style="fill:#ffffff;stroke:#080000;stroke-width:0.69701111"
         inkscape:connector-curvature="0"
         d="m -355.73067,880.93607 c 116.87887,29.59876 161.55141,25.02309 243.61342,-12.67358 -25.34772,43.65313 -63.337,67.82603 -114.06275,61.95991 -60.55117,8.44914 -87.30767,-8.44916 -129.55341,-49.28674 z"
         id="path4078" />
      <path
         style="fill:#ffc832;fill-opacity:1;stroke:none"
         d="m -440,912.36218 c 7.14286,25.71429 63.70139,132.39382 100.71429,148.57142 20.81928,-14.6335 48.57142,-37.8571 117.14285,-63.57142 -54.38088,20.03572 -135.71428,10.71432 -217.85714,-85 z"
         id="path4080"
         inkscape:connector-curvature="0"
         sodipodi:nodetypes="cccc" />
      <path
         style="fill:#ffc832;fill-opacity:1;stroke:none"
         d="m -202.03051,479.10061 c 35.35534,3.53554 197.9898998,15.65736 193.9492896,92.93404 C -5.555839,536.17423 1.3159919,511.95844 6.5659915,503.34427 -26.263966,486.17168 -129.8046,464.4534 -202.03051,479.10061 z"
         id="path4082"
         inkscape:connector-curvature="0"
         sodipodi:nodetypes="cccc" />
    </g>
  </g>
</svg>
