<?xml version="1.0" encoding="UTF-8" standalone="no"?>
<!-- Created with Inkscape (http://www.inkscape.org/) -->

<svg
   xmlns:dc="http://purl.org/dc/elements/1.1/"
   xmlns:cc="http://creativecommons.org/ns#"
   xmlns:rdf="http://www.w3.org/1999/02/22-rdf-syntax-ns#"
   xmlns:svg="http://www.w3.org/2000/svg"
   xmlns="http://www.w3.org/2000/svg"
   xmlns:sodipodi="http://sodipodi.sourceforge.net/DTD/sodipodi-0.dtd"
   xmlns:inkscape="http://www.inkscape.org/namespaces/inkscape"
   width="210mm"
   height="297mm"
   id="svg2"
   version="1.1"
   inkscape:version="0.48.4 r9939"
   sodipodi:docname="cerclemasterok.svg">
  <defs
     id="defs4" />
  <sodipodi:namedview
     id="base"
     pagecolor="#ffffff"
     bordercolor="#666666"
     borderopacity="1.0"
     inkscape:pageopacity="0.0"
     inkscape:pageshadow="2"
     inkscape:zoom="0.49497474"
     inkscape:cx="85.246092"
     inkscape:cy="571.75419"
     inkscape:document-units="px"
     inkscape:current-layer="layer2"
     showgrid="false"
     inkscape:window-width="1600"
     inkscape:window-height="876"
     inkscape:window-x="0"
     inkscape:window-y="24"
     inkscape:window-maximized="1" />
  <metadata
     id="metadata7">
    <rdf:RDF>
      <cc:Work
         rdf:about="">
        <dc:format>image/svg+xml</dc:format>
        <dc:type
           rdf:resource="http://purl.org/dc/dcmitype/StillImage" />
        <dc:title></dc:title>
      </cc:Work>
    </rdf:RDF>
  </metadata>
  <g
     inkscape:label="Calque 1"
     inkscape:groupmode="layer"
     id="layer1" />
  <g
     inkscape:groupmode="layer"
     id="layer3"
     inkscape:label="9999" />
  <g
     inkscape:groupmode="layer"
     id="layer2"
     inkscape:label="2222222">
    <path
       inkscape:connector-curvature="0"
       id="path3867"
       d="m 348.80829,540.14097 c 23.8691,-0.0259 48.3705,2.05327 73.1386,6.42054 176.1289,31.0563 299.5559,165.99081 275.6827,301.38241 -23.8732,135.3916 -186.0045,219.97428 -362.1335,188.91798 C 159.36719,1005.8056 35.940241,870.87112 59.813411,735.47952 80.329441,619.12732 202.94193,540.2996 348.80829,540.14097 z m -35.53983,99.79785 c -139.27731,3.714 -168.81395,49.9842 -168.99331,118.8501 -0.17799,68.3604 72.43534,103.9938 167.14387,118.8501 94.70857,14.8562 187.55157,-20.4198 193.12277,-61.2745 5.5711,-40.8546 -3.7133,-170.8546 -191.27333,-176.4257 z"
       style="fill:#ff0000;fill-opacity:1;stroke:#ff0000;stroke-width:0.1221237;stroke-linejoin:round;stroke-miterlimit:4;stroke-opacity:1;stroke-dasharray:none" />
    <path
       style="fill:#ffffff;fill-opacity:1;stroke:#f6e416;stroke-width:0.81739491px;stroke-linecap:butt;stroke-linejoin:miter;stroke-opacity:1"
       d="m 90.348401,736.03492 c 6.89094,27.6034 78.862999,112.1946 170.742279,97.0573 91.87921,-15.1374 129.96851,-106.8215 122.50561,-140.6886 -58.1902,-24.0417 -203.66561,-20.48 -293.247889,43.6313 z"
       id="path3869"
       inkscape:connector-curvature="0"
       sodipodi:nodetypes="cccc" />
    <path
       style="fill:#ff0000;fill-opacity:1;stroke:#080000;stroke-width:0.81739491px;stroke-linecap:butt;stroke-linejoin:miter;stroke-opacity:1"
       d="M 80.456361,740.45132 C 36.813801,657.64092 131.25521,518.27932 269.57447,528.52803 407.89369,538.77674 389.01749,672.77832 389.01749,692.36782 243.542,653.18872 128.69298,709.28612 80.456361,740.45132 z"
       id="path3871"
       inkscape:connector-curvature="0"
       sodipodi:nodetypes="czcc" />
    <path
       style="fill:#c80000;fill-opacity:1;stroke:none"
       d="m 172.33563,554.35061 c -20.67281,36.50778 -51.2992,112.19461 -25.26678,110.41381 26.03243,-1.7809 108.72371,-24.9322 235.05764,17.8086 -80.39428,-15.1373 -157.56518,-28.9424 -299.373099,54.3165 -15.72767,4.2758 -42.11131,-127.33203 89.582239,-182.53891 z"
       id="path3873"
       inkscape:connector-curvature="0"
       sodipodi:nodetypes="ccccc" />
    <path
       style="fill:none;stroke:#ff0000;stroke-width:1.63478982;stroke-linecap:butt;stroke-linejoin:miter;stroke-miterlimit:4;stroke-opacity:1;stroke-dasharray:none"
       d="m 179.22654,696.82002 c 1.53138,35.6174 22.9772,65.0105 62.01847,65.8921 78.86303,1.7809 82.37664,-66.3312 75.03475,-81.0295 -43.02794,-8.1 -105.66113,2.6713 -137.05322,15.1374 z"
       id="path3875"
       inkscape:connector-curvature="0"
       sodipodi:nodetypes="cccc" />
    <path
       style="fill:#ffffff;fill-opacity:1;stroke:#ff0000;stroke-width:0.81739491px;stroke-linecap:butt;stroke-linejoin:miter;stroke-opacity:1"
       d="m 215.52972,687.38942 c 0,27.6035 14.23042,44.1575 38.73156,41.4862 32.15773,-3.5617 35.986,-31.2732 34.45467,-49.0819 -18.73539,-1.2006 -50.93563,2.5232 -73.18623,7.5957 z"
       id="path3877"
       inkscape:connector-curvature="0"
       sodipodi:nodetypes="cccc" />
    <path
       style="fill:#ff0000;fill-opacity:1;stroke:none"
       d="m 180.37505,698.60092 28.32941,-5.3426 -27.56376,8.9043 27.56376,-6.6783 -26.41525,9.3496 26.79813,-7.1235 -24.88396,10.6852 25.64959,-8.4591 -25.64959,14.247 26.79806,-11.1305 -24.50108,15.1374 24.88395,-11.5756 -21.4385,15.5826 23.35262,-12.0209 -21.82128,19.5896 22.96975,-16.9183 -18.37583,21.8156 19.14152,-17.8087 -14.93037,20.48 17.22735,-16.9182 -12.63338,22.7061 14.16468,-20.48 -9.1879,24.0417 11.48493,-20.48 -6.50814,23.1513 9.57077,-21.3704 -6.50813,25.3773 9.18793,-23.1512 -6.1253,24.0417 9.57081,-21.8157 -4.97685,22.7061 7.6566,-20.48 -1.91415,20.48 4.21113,-19.5895 0.38283,20.48 3.44546,-20.0348 1.14852,20.48 1.91415,-18.2539 3.44546,20.9252 0.38287,-19.5896 3.44545,19.1443 -0.38283,-19.5895 3.06263,18.6991 0,-18.6991 3.06269,17.3635 0.38276,-16.9183 2.67986,16.9183 1.91411,-17.8087 2.297,18.2539 1.14851,-17.8087 3.82832,16.0278 -0.76569,-16.9182 4.59397,14.2469 -1.53129,-15.5826 5.74242,15.1374 -3.06267,-15.1374 6.50813,15.1374 -4.59397,-16.473 7.27378,13.3565 -4.21115,-15.5826 8.4223,13.8017 -6.12527,-16.473 10.71924,15.1374 -8.80512,-19.1444 11.86775,14.247 -8.4223,-16.9183 12.25057,12.4661 -9.95358,-17.3635 13.39906,13.3565 -11.4849,-17.3634 13.78188,14.2469 -10.33643,-17.3634 14.54756,12.9113 -12.6334,-16.4731 13.78189,10.24 -13.78189,-13.3565 14.54757,7.1235 -14.16474,-10.24 16.07886,5.3426 -15.696,-9.7948 16.8445,5.3426 -14.54756,-9.7947 15.69604,5.3426 -15.69604,-8.9044 14.93041,4.007 -14.16471,-6.6783 14.16471,2.2261 -13.78194,-5.3426 c 0,0 11.48497,0.8904 17.61021,0.4452 3.44548,16.9183 4.97683,61.8852 -53.59617,76.5773 -24.88401,5.3426 -77.33172,2.6713 -82.69134,-62.3303 z"
       id="path3879"
       inkscape:connector-curvature="0"
       sodipodi:nodetypes="ccccccccccccccccccccccccccccccccccccccccccccccccccccccccccccccccccccccccccccccccccccccccccc" />
    <path
       style="fill:#ff0000;fill-opacity:1;stroke:none"
       d="m 234.2006,684.70442 c 0.54143,9.7593 11.64018,19.8334 22.73898,18.2594 11.09879,-1.5741 15.97139,-12.5927 14.88857,-22.352 -7.85028,0.9445 -21.92682,0 -37.62755,4.0926 z"
       id="path3881"
       inkscape:connector-curvature="0"
       sodipodi:nodetypes="cscc" />
    <path
       sodipodi:nodetypes="cccc"
       inkscape:connector-curvature="0"
       id="path3883"
       d="m 603.78879,745.26902 c -4.396,17.6097 -50.3106,71.5747 -108.9251,61.9178 -58.6143,-9.6569 -82.9134,-68.1468 -78.1524,-89.7523 37.1224,-15.3375 129.9285,-13.0652 187.0775,27.8345 z"
       style="fill:#ffffff;fill-opacity:1;stroke:#f6e416;stroke-width:0.70927197;stroke-linecap:butt;stroke-linejoin:miter;stroke-miterlimit:4;stroke-opacity:1;stroke-dasharray:none" />
    <path
       sodipodi:nodetypes="czcc"
       inkscape:connector-curvature="0"
       id="path3885"
       d="m 610.09949,748.08652 c 27.8417,-52.8289 -32.4072,-141.73469 -120.648,-135.1965 -88.2408,6.5381 -76.1987,92.0245 -76.1987,104.5216 92.8061,-24.9943 166.0741,10.793 196.8467,30.6749 z"
       style="fill:#ff0000;fill-opacity:1;stroke:#080000;stroke-width:0.52145731px;stroke-linecap:butt;stroke-linejoin:miter;stroke-opacity:1" />
    <path
       sodipodi:nodetypes="ccccc"
       inkscape:connector-curvature="0"
       id="path3887"
       d="m 551.48509,629.36352 c 13.1882,23.2901 32.7263,71.5746 16.1189,70.4385 -16.6074,-1.1361 -69.3604,-15.9055 -149.9551,11.3611 51.2875,-9.6569 100.5187,-18.4639 190.9852,34.6512 10.0334,2.7277 26.8649,-81.2316 -57.149,-116.4508 z"
       style="fill:#c80000;fill-opacity:1;stroke:none" />
    <path
       sodipodi:nodetypes="cccc"
       inkscape:connector-curvature="0"
       id="path3889"
       d="m 547.08899,720.25192 c -0.9769,22.7221 -14.6583,41.4734 -39.5648,42.0359 -50.3106,1.1361 -52.5521,-42.316 -47.8684,-51.6928 27.4498,-5.1674 67.4066,1.7042 87.4332,9.6569 z"
       style="fill:none;stroke:#ff0000;stroke-width:1.04291463;stroke-linecap:butt;stroke-linejoin:miter;stroke-miterlimit:4;stroke-opacity:1;stroke-dasharray:none" />
    <path
       sodipodi:nodetypes="cccc"
       inkscape:connector-curvature="0"
       id="path3891"
       d="m 523.92939,714.23572 c 0,17.6096 -9.0783,28.1702 -24.7088,26.4661 -20.5151,-2.2722 -22.9573,-19.9508 -21.9804,-31.3118 11.9522,-0.766 32.4944,1.6096 46.6892,4.8457 z"
       style="fill:#ffffff;fill-opacity:1;stroke:#ff0000;stroke-width:0.52145731px;stroke-linecap:butt;stroke-linejoin:miter;stroke-opacity:1" />
    <path
       sodipodi:nodetypes="ccccccccccccccccccccccccccccccccccccccccccccccccccccccccccccccccccccccccccccccccccccccccccc"
       inkscape:connector-curvature="0"
       id="path3893"
       d="m 546.35629,721.38802 -18.0727,-3.4083 17.5843,5.6805 -17.5843,-4.2604 16.8516,5.9646 -17.0959,-4.5445 15.8748,6.8167 -16.3633,-5.3965 16.3633,9.0888 -17.0959,-7.1006 15.6305,9.6569 -15.8748,-7.3847 13.6768,9.9409 -14.8979,-7.6687 13.9209,12.4972 -14.6536,-10.7931 11.7229,13.9173 -12.2113,-11.361 9.5248,13.0652 -10.9902,-10.793 8.0595,14.4853 -9.0364,-13.0652 5.8614,15.3374 -7.3267,-13.0652 4.1518,14.7694 -6.1057,-13.6333 4.1519,16.1895 -5.8614,-14.7693 3.9076,15.3374 -6.1057,-13.9173 3.175,14.4853 -4.8845,-13.0652 1.2211,13.0652 -2.6865,-12.4971 -0.2443,13.0652 -2.198,-12.7812 -0.7327,13.0652 -1.2211,-11.6451 -2.1981,13.3493 -0.2442,-12.4972 -2.198,12.2131 0.2442,-12.4971 -1.9538,11.9291 0,-11.9291 -1.9538,11.077 -0.2443,-10.793 -1.7095,10.793 -1.2212,-11.361 -1.4653,11.645 -0.7327,-11.361 -2.4422,10.2249 0.4884,-10.793 -2.9307,9.0889 0.9769,-9.9409 -3.6635,9.6569 1.9539,-9.6569 -4.1519,9.6569 2.9307,-10.509 -4.6403,8.5208 2.6865,-9.941 -5.373,8.8049 3.9077,-10.509 -6.8384,9.6569 5.6172,-12.2131 -7.571,9.0888 5.373,-10.793 -7.8152,7.9527 6.3498,-11.077 -8.5479,8.5208 7.3268,-11.077 -8.7921,9.0888 6.5941,-11.077 -9.2807,8.2368 8.0595,-10.509 -8.7921,6.5326 8.7921,-8.5208 -9.2806,4.5444 9.0364,-6.5326 -10.2575,3.4083 10.0133,-6.2486 -10.746,3.4084 9.2806,-6.2486 -10.0133,3.4083 10.0133,-5.6805 -9.5248,2.5562 9.0364,-4.2604 -9.0364,1.4202 8.7922,-3.4084 c 0,0 -7.3269,0.5681 -11.2345,0.2841 -2.198,10.793 -3.1749,39.4796 34.1918,48.8525 15.8747,3.4083 49.3337,1.7041 52.7529,-39.7637 z"
       style="fill:#ff0000;fill-opacity:1;stroke:none" />
    <path
       sodipodi:nodetypes="cscc"
       inkscape:connector-curvature="0"
       id="path3895"
       d="m 512.01829,712.52282 c -0.3454,6.2259 -7.4259,12.6527 -14.5063,11.6485 -7.0805,-1.0042 -10.189,-8.0335 -9.4983,-14.2594 5.0082,0.6025 13.9883,0 24.0046,2.6109 z"
       style="fill:#ff0000;fill-opacity:1;stroke:none" />
    <path
       sodipodi:nodetypes="cccc"
       inkscape:connector-curvature="0"
       id="path3897"
       d="m 484.30349,899.36352 c -147.0509,37.2394 -203.25966,31.4822 -306.50369,-15.9452 31.89056,54.9226 79.68781,85.334 143.50749,77.9547 76.183,10.6302 109.8453,-10.6302 162.9962,-62.0095 z"
       style="fill:#ffffff;fill-opacity:1;stroke:#080000;stroke-width:0.8769455;stroke-opacity:1" />
    <path
       style="fill:#c80000;fill-opacity:1;stroke:none"
       d="m 124.24877,922.0525 c 410.12193,272.7412 655.589,-102.0254 512.14734,-252.53814 34.34519,32.32489 122.22846,172.73609 -5.05076,292.94424 -127.27922,120.2082 -374.7666,105.0559 -507.09658,-40.4061 z"
       id="path3016"
       inkscape:connector-curvature="0"
       sodipodi:nodetypes="cczc" />
    <path
       style="fill:#ff0000;fill-opacity:1;stroke:#ff0000;stroke-width:0.1221237;stroke-linejoin:round;stroke-miterlimit:4;stroke-opacity:1;stroke-dasharray:none"
       d="m 416.71594,22.942856 c -23.8691,-0.0259 -48.3705,2.05327 -73.1386,6.42054 C 167.44844,60.419696 44.021441,195.35421 67.894641,330.74581 91.767841,466.13744 253.89914,550.72014 430.02814,519.66384 606.15704,488.60754 729.58399,353.67301 705.71082,218.28141 685.19479,101.92921 562.5823,23.101486 416.71594,22.942856 z m 35.53983,99.797854 c 139.27731,3.714 168.81395,49.9842 168.99331,118.8501 0.17799,68.3604 -72.43534,103.9938 -167.14387,118.8501 -94.70857,14.8562 -187.55157,-20.4198 -193.12277,-61.2745 -5.5711,-40.8546 3.7133,-170.8546 191.27333,-176.4257 z"
       id="path3786"
       inkscape:connector-curvature="0" />
    <path
       sodipodi:nodetypes="cccc"
       inkscape:connector-curvature="0"
       id="path3788"
       d="m 675.17583,218.83681 c -6.89094,27.6034 -78.863,112.1946 -170.74228,97.0573 -91.87921,-15.1374 -129.96851,-106.8215 -122.50561,-140.6886 58.1902,-24.0417 203.66561,-20.48 293.24789,43.6313 z"
       style="fill:#ffffff;fill-opacity:1;stroke:#f6e416;stroke-width:0.81739491px;stroke-linecap:butt;stroke-linejoin:miter;stroke-opacity:1" />
    <path
       sodipodi:nodetypes="czcc"
       inkscape:connector-curvature="0"
       id="path3790"
       d="M 685.06787,223.25321 C 728.71043,140.44281 634.26902,1.0812062 495.94976,11.329916 357.63054,21.578626 376.50674,155.58021 376.50674,175.16971 c 145.47549,-39.1791 260.32451,16.9183 308.56113,48.0835 z"
       style="fill:#ff0000;fill-opacity:1;stroke:#080000;stroke-width:0.81739491px;stroke-linecap:butt;stroke-linejoin:miter;stroke-opacity:1" />
    <path
       sodipodi:nodetypes="ccccc"
       inkscape:connector-curvature="0"
       id="path3792"
       d="m 593.1886,37.152496 c 20.67281,36.50778 51.2992,112.194614 25.26678,110.413814 -26.03243,-1.7809 -108.72371,-24.9322 -235.05764,17.8086 80.39428,-15.1373 157.56518,-28.9424 299.3731,54.3165 15.72767,4.2758 42.11131,-127.332034 -89.58224,-182.538914 z"
       style="fill:#c80000;fill-opacity:1;stroke:none" />
    <path
       sodipodi:nodetypes="cccc"
       inkscape:connector-curvature="0"
       id="path3794"
       d="m 586.29769,179.62191 c -1.53138,35.6174 -22.9772,65.0105 -62.01847,65.8921 -78.86303,1.7809 -82.37664,-66.3312 -75.03475,-81.0295 43.02794,-8.1 105.66113,2.6713 137.05322,15.1374 z"
       style="fill:none;stroke:#ff0000;stroke-width:1.63478982;stroke-linecap:butt;stroke-linejoin:miter;stroke-miterlimit:4;stroke-opacity:1;stroke-dasharray:none" />
    <path
       sodipodi:nodetypes="cccc"
       inkscape:connector-curvature="0"
       id="path3796"
       d="m 549.99451,170.19131 c 0,27.6035 -14.23042,44.1575 -38.73156,41.4862 -32.15773,-3.5617 -35.986,-31.2732 -34.45467,-49.0819 18.73539,-1.2006 50.93563,2.5232 73.18623,7.5957 z"
       style="fill:#ffffff;fill-opacity:1;stroke:#ff0000;stroke-width:0.81739491px;stroke-linecap:butt;stroke-linejoin:miter;stroke-opacity:1" />
    <path
       sodipodi:nodetypes="ccccccccccccccccccccccccccccccccccccccccccccccccccccccccccccccccccccccccccccccccccccccccccc"
       inkscape:connector-curvature="0"
       id="path3798"
       d="m 585.14918,181.40281 -28.32941,-5.3426 27.56376,8.9043 -27.56376,-6.6783 26.41525,9.3496 -26.79813,-7.1235 24.88396,10.6852 -25.64959,-8.4591 25.64959,14.247 -26.79806,-11.1305 24.50108,15.1374 -24.88395,-11.5756 21.4385,15.5826 -23.35262,-12.0209 21.82128,19.5896 -22.96975,-16.9183 18.37583,21.8156 -19.14152,-17.8087 14.93037,20.48 -17.22735,-16.9182 12.63338,22.7061 -14.16468,-20.48 9.1879,24.0417 -11.48493,-20.48 6.50814,23.1513 -9.57077,-21.3704 6.50813,25.3773 -9.18793,-23.1512 6.1253,24.0417 -9.57081,-21.8157 4.97685,22.7061 -7.6566,-20.48 1.91415,20.48 -4.21113,-19.5895 -0.38283,20.48 -3.44546,-20.0348 -1.14852,20.48 -1.91415,-18.2539 -3.44546,20.9252 -0.38287,-19.5896 -3.44545,19.1443 0.38283,-19.5895 -3.06263,18.6991 0,-18.6991 -3.06269,17.3635 -0.38276,-16.9183 -2.67986,16.9183 -1.91411,-17.8087 -2.297,18.2539 -1.14851,-17.8087 -3.82832,16.0278 0.76569,-16.9182 -4.59397,14.2469 1.53129,-15.5826 -5.74242,15.1374 3.06267,-15.1374 -6.50813,15.1374 4.59397,-16.473 -7.27378,13.3565 4.21115,-15.5826 -8.4223,13.8017 6.12527,-16.473 -10.71924,15.1374 8.80512,-19.1444 -11.86775,14.247 8.4223,-16.9183 -12.25057,12.4661 9.95358,-17.3635 -13.39906,13.3565 11.4849,-17.3634 -13.78188,14.2469 10.33643,-17.3634 -14.54756,12.9113 12.6334,-16.4731 -13.78189,10.24 13.78189,-13.3565 -14.54757,7.1235 14.16474,-10.24 -16.07886,5.3426 15.696,-9.7948 -16.8445,5.3426 14.54756,-9.7947 -15.69604,5.3426 15.69604,-8.9044 -14.93041,4.007 14.16471,-6.6783 -14.16471,2.2261 13.78194,-5.3426 c 0,0 -11.48497,0.8904 -17.61021,0.4452 -3.44548,16.9183 -4.97683,61.8852 53.59617,76.5773 24.88401,5.3426 77.33172,2.6713 82.69134,-62.3303 z"
       style="fill:#ff0000;fill-opacity:1;stroke:none" />
    <path
       sodipodi:nodetypes="cscc"
       inkscape:connector-curvature="0"
       id="path3800"
       d="m 531.32363,167.50631 c -0.54143,9.7593 -11.64018,19.8334 -22.73898,18.2594 -11.09879,-1.5741 -15.97139,-12.5927 -14.88857,-22.352 7.85028,0.9445 21.92682,0 37.62755,4.0926 z"
       style="fill:#ff0000;fill-opacity:1;stroke:none" />
    <path
       style="fill:#ffffff;fill-opacity:1;stroke:#f6e416;stroke-width:0.70927197;stroke-linecap:butt;stroke-linejoin:miter;stroke-miterlimit:4;stroke-opacity:1;stroke-dasharray:none"
       d="m 161.73544,228.07091 c 4.396,17.6097 50.3106,71.5747 108.9251,61.9178 58.6143,-9.6569 82.9134,-68.1468 78.1524,-89.7523 -37.1224,-15.3375 -129.9285,-13.0652 -187.0775,27.8345 z"
       id="path3802"
       inkscape:connector-curvature="0"
       sodipodi:nodetypes="cccc" />
    <path
       style="fill:#ff0000;fill-opacity:1;stroke:#080000;stroke-width:0.52145731px;stroke-linecap:butt;stroke-linejoin:miter;stroke-opacity:1"
       d="m 155.42474,230.88841 c -27.8417,-52.8289 32.4072,-141.734694 120.648,-135.196504 88.2408,6.538104 76.1987,92.024504 76.1987,104.521604 -92.8061,-24.9943 -166.0741,10.793 -196.8467,30.6749 z"
       id="path3804"
       inkscape:connector-curvature="0"
       sodipodi:nodetypes="czcc" />
    <path
       style="fill:#c80000;fill-opacity:1;stroke:none"
       d="m 214.03914,112.16541 c -13.1882,23.2901 -32.7263,71.5746 -16.1189,70.4385 16.6074,-1.1361 69.3604,-15.9055 149.9551,11.3611 -51.2875,-9.6569 -100.5187,-18.4639 -190.9852,34.6512 -10.0334,2.7277 -26.8649,-81.2316 57.149,-116.4508 z"
       id="path3806"
       inkscape:connector-curvature="0"
       sodipodi:nodetypes="ccccc" />
    <path
       style="fill:none;stroke:#ff0000;stroke-width:1.04291463;stroke-linecap:butt;stroke-linejoin:miter;stroke-miterlimit:4;stroke-opacity:1;stroke-dasharray:none"
       d="m 218.43524,203.05381 c 0.9769,22.7221 14.6583,41.4734 39.5648,42.0359 50.3106,1.1361 52.5521,-42.316 47.8684,-51.6928 -27.4498,-5.1674 -67.4066,1.7042 -87.4332,9.6569 z"
       id="path3808"
       inkscape:connector-curvature="0"
       sodipodi:nodetypes="cccc" />
    <path
       style="fill:#ffffff;fill-opacity:1;stroke:#ff0000;stroke-width:0.52145731px;stroke-linecap:butt;stroke-linejoin:miter;stroke-opacity:1"
       d="m 241.59484,197.03761 c 0,17.6096 9.0783,28.1702 24.7088,26.4661 20.5151,-2.2722 22.9573,-19.9508 21.9804,-31.3118 -11.9522,-0.766 -32.4944,1.6096 -46.6892,4.8457 z"
       id="path3810"
       inkscape:connector-curvature="0"
       sodipodi:nodetypes="cccc" />
    <path
       style="fill:#ff0000;fill-opacity:1;stroke:none"
       d="m 219.16794,204.18991 18.0727,-3.4083 -17.5843,5.6805 17.5843,-4.2604 -16.8516,5.9646 17.0959,-4.5445 -15.8748,6.8167 16.3633,-5.3965 -16.3633,9.0888 17.0959,-7.1006 -15.6305,9.6569 15.8748,-7.3847 -13.6768,9.9409 14.8979,-7.6687 -13.9209,12.4972 14.6536,-10.7931 -11.7229,13.9173 12.2113,-11.361 -9.5248,13.0652 10.9902,-10.793 -8.0595,14.4853 9.0364,-13.0652 -5.8614,15.3374 7.3267,-13.0652 -4.1518,14.7694 6.1057,-13.6333 -4.1519,16.1895 5.8614,-14.7693 -3.9076,15.3374 6.1057,-13.9173 -3.175,14.4853 4.8845,-13.0652 -1.2211,13.0652 2.6865,-12.4971 0.2443,13.0652 2.198,-12.7812 0.7327,13.0652 1.2211,-11.6451 2.1981,13.3493 0.2442,-12.4972 2.198,12.2131 -0.2442,-12.4971 1.9538,11.9291 0,-11.9291 1.9538,11.077 0.2443,-10.793 1.7095,10.793 1.2212,-11.361 1.4653,11.645 0.7327,-11.361 2.4422,10.2249 -0.4884,-10.793 2.9307,9.0889 -0.9769,-9.9409 3.6635,9.6569 -1.9539,-9.6569 4.1519,9.6569 -2.9307,-10.509 4.6403,8.5208 -2.6865,-9.941 5.373,8.8049 -3.9077,-10.509 6.8384,9.6569 -5.6172,-12.2131 7.571,9.0888 -5.373,-10.793 7.8152,7.9527 -6.3498,-11.077 8.5479,8.5208 -7.3268,-11.077 8.7921,9.0888 -6.5941,-11.077 9.2807,8.2368 -8.0595,-10.509 8.7921,6.5326 -8.7921,-8.5208 9.2806,4.5444 -9.0364,-6.5326 10.2575,3.4083 -10.0133,-6.2486 10.746,3.4084 -9.2806,-6.2486 10.0133,3.4083 -10.0133,-5.6805 9.5248,2.5562 -9.0364,-4.2604 9.0364,1.4202 -8.7922,-3.4084 c 0,0 7.3269,0.5681 11.2345,0.2841 2.198,10.793 3.1749,39.4796 -34.1918,48.8525 -15.8747,3.4083 -49.3337,1.7041 -52.7529,-39.7637 z"
       id="path3812"
       inkscape:connector-curvature="0"
       sodipodi:nodetypes="ccccccccccccccccccccccccccccccccccccccccccccccccccccccccccccccccccccccccccccccccccccccccccc" />
    <path
       style="fill:#ff0000;fill-opacity:1;stroke:none"
       d="m 253.50594,195.32471 c 0.3454,6.2259 7.4259,12.6527 14.5063,11.6485 7.0805,-1.0042 10.189,-8.0335 9.4983,-14.2594 -5.0082,0.6025 -13.9883,0 -24.0046,2.6109 z"
       id="path3814"
       inkscape:connector-curvature="0"
       sodipodi:nodetypes="cscc" />
    <path
       style="fill:#ffffff;fill-opacity:1;stroke:#080000;stroke-width:0.8769455;stroke-opacity:1"
       d="m 281.22074,382.16541 c 147.0509,37.2394 203.25966,31.4822 306.50369,-15.9452 -31.89056,54.9226 -79.68781,85.33403 -143.50749,77.95473 -76.183,10.6302 -109.8453,-10.6302 -162.9962,-62.00953 z"
       id="path3816"
       inkscape:connector-curvature="0"
       sodipodi:nodetypes="cccc" />
    <path
       sodipodi:nodetypes="cczc"
       inkscape:connector-curvature="0"
       id="path3818"
       d="M 641.27546,404.85439 C 231.15353,677.59564 -14.313539,302.82899 129.12812,152.31625 94.782931,184.64114 6.8996608,325.05234 134.17888,445.26054 c 127.27922,120.2082 374.7666,105.0559 507.09658,-40.40615 z"
       style="fill:#c80000;fill-opacity:1;stroke:none" />
  </g>
</svg>
