<?xml version="1.0" encoding="UTF-8" standalone="no"?>
<!-- Created with Inkscape (http://www.inkscape.org/) -->

<svg
   xmlns:dc="http://purl.org/dc/elements/1.1/"
   xmlns:cc="http://creativecommons.org/ns#"
   xmlns:rdf="http://www.w3.org/1999/02/22-rdf-syntax-ns#"
   xmlns:svg="http://www.w3.org/2000/svg"
   xmlns="http://www.w3.org/2000/svg"
   xmlns:sodipodi="http://sodipodi.sourceforge.net/DTD/sodipodi-0.dtd"
   xmlns:inkscape="http://www.inkscape.org/namespaces/inkscape"
   width="210mm"
   height="297mm"
   id="svg5105"
   version="1.1"
   inkscape:version="0.48.4 r9939"
   sodipodi:docname="Nouveau document 11">
  <defs
     id="defs5107" />
  <sodipodi:namedview
     id="base"
     pagecolor="#ffffff"
     bordercolor="#666666"
     borderopacity="1.0"
     inkscape:pageopacity="0.0"
     inkscape:pageshadow="2"
     inkscape:zoom="0.35"
     inkscape:cx="375"
     inkscape:cy="520"
     inkscape:document-units="px"
     inkscape:current-layer="layer1"
     showgrid="false"
     inkscape:window-width="486"
     inkscape:window-height="383"
     inkscape:window-x="1114"
     inkscape:window-y="489"
     inkscape:window-maximized="0" />
  <metadata
     id="metadata5110">
    <rdf:RDF>
      <cc:Work
         rdf:about="">
        <dc:format>image/svg+xml</dc:format>
        <dc:type
           rdf:resource="http://purl.org/dc/dcmitype/StillImage" />
        <dc:title></dc:title>
      </cc:Work>
    </rdf:RDF>
  </metadata>
  <g
     inkscape:label="Calque 1"
     inkscape:groupmode="layer"
     id="layer1">
    <path
       style="fill:#0000ff;stroke:#0000ff;stroke-width:0.37833539px"
       d="m 231.62607,289.41529 c -55.12952,8.64798 -100.50736,77.82608 -110.23738,117.82144 56.21005,27.02375 129.33617,90.54586 158.51874,124.05205 -65.93483,51.66913 -94.596,81.6466 -152.49815,107.85714 31.34811,51.88643 80.25019,102.06805 117.00471,108.55715 66.98698,-41.68072 94.66973,-60.43671 146.87426,-99.1529 31.92385,45.32333 37.73162,59.58825 63.14613,126.7589 56.21006,-3.2428 122.13854,-57.27912 142.67386,-85.38488 C 566.05285,632.57163 546.20247,589.44016 512.56337,551.33406 548.93554,518.90542 584.86957,480.63634 628.61131,437.61967 609.15427,359.78706 539.34703,306.43534 503.36914,295.99593 474.90121,341.49474 417.37746,400.58515 397.2155,421.47144 366.94866,381.4761 282.43421,306.70977 231.62607,289.41529 z m 3.43034,53.53186 c 12.59879,0.63267 162.54697,136.15168 169.22977,154.71503 27.87304,-20.34364 77.14069,-68.67539 98.80293,-93.52909 12.82344,9.80617 43.75663,37.7133 52.80847,49.0281 -9.05185,12.82345 -66.37709,69.40659 -107.11041,94.29916 7.54321,24.13826 64.87013,88.25486 83.72813,146.33755 -15.0864,4.52592 -25.65636,11.30616 -36.21685,26.39256 -5.28024,-38.47035 -57.3281,-120.68011 -88.25524,-135.76652 -43.75059,33.1901 -106.33807,62.59839 -127.45905,79.94776 -6.78888,-4.52593 -12.05203,-31.12093 -30.17292,-49.77484 35.45306,-24.89256 73.00553,-46.302 101.81322,-82.23465 -28.66417,-52.04811 -77.69675,-95.04196 -155.39178,-139.54688 6.78889,-37.71603 29.43616,-46.00324 37.73368,-49.77484 0.12966,-0.0589 0.29007,-0.10337 0.49005,-0.0934 z"
       id="path3900"
       inkscape:connector-curvature="0" />
    <g
       id="g30"
       transform="matrix(-0.52387431,0,0,0.57019652,84.744835,424.19694)">
      <path
         id="path3904"
         d="m -958.72,104.88 c 9.0914,31.315 104.05,127.28 225.26,110.11 121.22,-17.173 171.47,-121.18 161.62,-159.6 -76.772,-27.274 -268.7,-23.234 -386.89,49.497 z"
         inkscape:connector-curvature="0"
         style="fill:#ffffff;stroke:#e10000;stroke-width:1px" />
      <path
         id="path3906"
         d="m -971.77,109.89 c -57.579,-93.944 67.02,-252.04 249.51,-240.42 182.49,11.627 157.58,163.64 157.58,185.87 -191.93,-44.447 -343.45,19.193 -407.09,54.548 z"
         inkscape:connector-curvature="0"
         style="fill:#0000ff;stroke:#080000;stroke-width:1px" />
      <path
         id="path3908"
         d="m -850.55,-101.23 c -27.274,41.416 -67.68,127.28 -33.335,125.26 34.345,-2.0203 143.44,-28.284 310.12,20.203 -106.07,-17.173 -207.88,-32.834 -394.97,61.619 -20.75,4.8507 -55.558,-144.45 118.19,-207.08 z"
         inkscape:connector-curvature="0"
         style="fill:#0000b4" />
    </g>
    <path
       id="path3910"
       d="m 525.56412,458.63225 c -1.05839,23.03936 -15.88073,42.05256 -42.86445,42.62276 -54.50912,1.15197 -56.93466,-42.90672 -51.86093,-52.41475 29.73929,-5.23953 73.02808,1.72798 94.72695,9.79199 z"
       inkscape:connector-curvature="0"
       style="fill:none;stroke:#e10000;stroke-width:1.09308982" />
    <path
       id="path3912"
       d="m 500.47054,452.53229 c 0,17.8557 -9.83522,28.56342 -26.76945,26.83572 -22.2259,-2.30393 -24.87199,-20.22943 -23.81376,-31.74911 12.94913,-0.77661 35.20488,1.63213 50.58321,4.91333 z"
       inkscape:connector-curvature="0"
       style="fill:none;stroke:#e10000;stroke-width:0.54654491px" />
    <path
       id="path3914"
       d="m 524.76783,459.78462 -19.58033,-3.45591 19.05069,5.76013 -19.05069,-4.31987 18.25702,6.04808 -18.52157,-4.60788 17.19879,6.91193 -17.72791,-5.47184 17.72791,9.21552 -18.52158,-7.19987 16.93424,9.79198 -17.19879,-7.48782 14.81726,10.07993 -16.14057,-7.77577 15.08182,12.67148 -15.87601,-10.94378 12.70081,14.11179 -13.22993,-11.51968 10.31928,13.24795 -11.90662,-10.94378 8.73194,14.68769 -9.79016,-13.24795 6.3504,15.55154 -7.93774,-13.24794 4.49814,14.97564 -6.61496,-13.82385 4.49814,16.41539 -6.3504,-14.97564 4.23353,15.55154 -6.61496,-14.11179 3.43976,14.68769 -5.29218,-13.24795 1.32299,13.24795 -2.91054,-12.67148 -0.2646,13.24795 -2.38137,-12.95943 -0.79378,13.24795 -1.32299,-11.80763 -2.38137,13.53589 -0.2646,-12.67147 -2.38138,12.38352 0.2646,-12.67147 -2.11677,12.09558 v -12.09558 l -2.11677,11.23173 -0.26459,-10.94378 -1.85216,10.94378 -1.32299,-11.51968 -1.5876,11.80763 -0.79378,-11.51968 -2.64598,10.36788 0.52922,-10.94378 -3.17515,9.21551 1.05838,-10.07993 -3.96892,9.79198 2.11676,-9.79198 -4.49814,9.79198 3.17515,-10.65583 -5.02731,8.63962 2.91054,-10.07993 -5.82129,8.92756 4.23354,-10.65583 -7.40863,9.79198 6.08584,-12.38352 -8.2023,9.21551 5.8213,-10.94378 -8.46686,8.06372 6.87952,-11.23173 -9.26105,8.63962 7.93774,-11.23173 -9.52561,9.21551 7.14408,-11.23173 -10.05472,8.35167 8.73193,-10.65583 -9.5256,6.62397 9.5256,-8.63962 -10.05472,4.60787 9.79017,-6.62397 -11.11295,3.45591 10.84839,-6.33603 -11.64206,3.45591 10.05472,-6.33603 -10.84839,3.45591 10.84839,-5.76013 -10.31927,2.59194 9.79016,-4.31986 -9.79016,1.43997 9.5256,-3.4559 c 0,0 -7.93774,0.57601 -12.17169,0.28799 -2.38138,10.94378 -3.43976,40.03122 37.04367,49.53468 17.1988,3.45591 53.4509,1.72793 57.15469,-40.31916 z"
       inkscape:connector-curvature="0"
       style="fill:#e10000" />
    <path
       id="path3916"
       d="m 487.56751,450.79547 c -0.37419,6.31264 -8.04513,12.82942 -15.71623,11.81105 -7.67109,-1.0182 -11.03855,-8.14583 -10.29046,-14.45848 5.42577,0.61091 15.15516,0 26.00669,2.64737 z"
       inkscape:connector-curvature="0"
       style="fill:#ff0000" />
    <path
       style="fill:#ffffff;stroke:#e10000;stroke-width:0.43542281px"
       inkscape:connector-curvature="0"
       d="m 214.40657,480.16371 c 3.67077,14.70442 42.01159,59.7662 90.95174,51.70378 48.94419,-8.06384 69.2333,-56.90186 65.25623,-74.94254 C 339.61682,444.11804 262.12333,446.01508 214.40253,480.167 z"
       id="path3920" />
    <path
       style="fill:#0000ff;stroke:#080000;stroke-width:0.43542281px"
       inkscape:connector-curvature="0"
       d="m 209.13746,482.51623 c -23.24829,-44.11279 27.06023,-118.3491 100.743,-112.89276 73.68277,5.45963 63.62503,76.83958 63.62503,87.278 -77.4943,-20.87074 -138.67252,9.01236 -164.36803,25.61382 z"
       id="path3922" />
    <path
       style="fill:#0000b4"
       inkscape:connector-curvature="0"
       d="m 258.08166,383.38172 c -11.01224,19.44749 -27.3267,59.7662 -13.45945,58.81768 13.86725,-0.94866 57.91581,-13.28117 125.21509,9.48662 -42.82718,-8.06384 -83.93433,-15.41769 -159.47442,28.93411 -8.37809,2.27772 -22.43228,-67.82863 47.7208,-97.23747 z"
       id="path3924" />
    <path
       id="path3926"
       d="m 261.75187,459.27371 c 0.81572,18.97324 12.23968,34.63087 33.03672,35.10044 42.01158,0.94866 43.881,-35.33428 39.97056,-43.16427 -22.92084,-4.31483 -56.28461,1.42301 -73.00849,8.06383 z"
       inkscape:connector-curvature="0"
       style="fill:none;stroke:#e10000;stroke-width:0.87084562" />
    <path
       id="path3928"
       d="m 281.09213,454.25031 c 0,14.70442 7.58026,23.52238 20.63191,22.0996 17.13006,-1.89733 19.16947,-16.65922 18.35387,-26.14584 -9.98023,-0.63955 -27.1333,1.34408 -38.98578,4.04619 z"
       inkscape:connector-curvature="0"
       style="fill:none;stroke:#e10000;stroke-width:0.43542281px" />
    <path
       id="path3930"
       d="m 262.36559,460.2227 15.09106,-2.84598 -14.68286,4.74354 14.68286,-3.55747 -14.07115,4.98068 14.27505,-3.79465 -13.25555,5.69206 13.66335,-4.50613 -13.66335,7.58911 14.27505,-5.9292 -13.05165,8.06384 13.25555,-6.16632 -11.42004,8.30096 12.43995,-6.40345 -11.62394,10.43513 12.23604,-9.01235 -9.78883,11.62126 10.19663,-9.48662 -7.95333,10.90987 9.17674,-9.01236 -6.72993,12.09552 7.54553,-10.90987 -4.89442,12.80691 6.11782,-10.90987 -3.46683,12.33265 5.09832,-11.38413 -3.46683,13.5183 4.89441,-12.33265 -3.26289,12.80691 5.09832,-11.62125 -2.65111,12.09551 4.07882,-10.90986 -1.01966,10.90986 2.24322,-10.43513 0.20394,10.90986 1.83538,-10.67226 0.61179,10.90986 1.01966,-9.72374 1.83539,11.14699 0.20393,-10.43513 1.83539,10.198 -0.20393,-10.43513 1.63144,9.96087 v -9.96087 l 1.63145,9.24948 0.20393,-9.01235 1.4275,9.01235 1.01967,-9.48661 1.2236,9.72374 0.61179,-9.48661 2.03932,8.53809 -0.40788,-9.01235 2.44717,7.5891 -0.81572,-8.30096 3.05895,8.06383 -1.63145,-8.06383 3.46684,8.06383 -2.44717,-8.77522 3.87467,7.11484 -2.24323,-8.30096 4.48662,7.35197 -3.26289,-8.77523 5.71002,8.06384 -4.69052,-10.19801 6.32172,7.58911 -4.48661,-9.01236 6.52562,6.64059 -5.30222,-9.24949 7.13773,7.11485 -6.11783,-9.24949 7.34163,7.5891 -5.50612,-9.24948 7.74943,6.87771 -6.72992,-8.77522 7.34162,5.45493 -7.34162,-7.11484 7.74943,3.79464 -7.54553,-5.45493 8.56503,2.84598 -8.36113,-5.2178 8.97283,2.84598 -7.74943,-5.2178 8.36113,2.84599 -8.36113,-4.74355 7.95333,2.1345 -7.54553,-3.55747 7.54553,1.18584 -7.34163,-2.84598 c 0,0 6.11782,0.47435 9.38104,0.23717 1.83539,9.01235 2.65111,32.96626 -28.55051,40.79249 -13.25555,2.84599 -41.19597,1.42297 -44.05058,-33.20339 z"
       inkscape:connector-curvature="0"
       style="fill:#e10000" />
    <path
       id="path3932"
       d="m 291.03682,452.82002 c 0.28841,5.19855 6.2006,10.5652 12.11291,9.72656 5.9123,-0.8385 8.50769,-6.7082 7.93112,-11.90675 -4.18178,0.50309 -11.68047,0 -20.04403,2.18014 z"
       inkscape:connector-curvature="0"
       style="fill:#ff0000" />
    <path
       style="fill:#ffffff;stroke:#080000;stroke-width:0.54465419"
       inkscape:connector-curvature="0"
       d="m 323.29816,575.50709 c 91.33078,23.12889 126.23853,19.5534 190.36293,-9.90331 -19.80706,34.11117 -49.49242,53.00021 -89.13023,48.41634 -47.31553,6.60228 -68.22342,-6.60229 -101.23484,-38.51334 z"
       id="path3934" />
    <path
       style="fill:#0000b4;fill-opacity:1;stroke:none"
       d="m 172.50642,697.04914 c 74.43928,57.31873 120.00617,15.44072 167.14287,-11.42857 -21.30114,13.53681 -54.27828,36.21065 -94.62492,60.671 -36.55856,-7.107 -60.41226,-35.21669 -72.51795,-49.24243 z"
       id="path3022"
       inkscape:connector-curvature="0"
       sodipodi:nodetypes="cccc" />
    <path
       style="fill:#0000b4;fill-opacity:1;stroke:none"
       d="m 548.22072,602.22771 c 15.89285,41.07143 59.46428,80.35715 3.57142,131.24996 17.85715,-16.96423 22.85714,-15.17853 45,-43.57139 -14.99999,-31.96428 -39.28571,-72.49999 -48.57142,-87.67857 z"
       id="path3024"
       inkscape:connector-curvature="0"
       sodipodi:nodetypes="cccc" />
    <path
       style="fill:#0000b4;fill-opacity:1;stroke:none"
       d="m 478.5958,331.58739 c 35.35714,-38.92857 71.0572,3.41298 89.62863,8.41299 -20.95078,-21.51651 -48.20006,-39.59274 -64.62863,-43.16417 -2.4127,4.8886 -14.28571,22.60832 -25,34.75118 z"
       id="path3026"
       inkscape:connector-curvature="0"
       sodipodi:nodetypes="cccc" />
    <path
       style="fill:#0000b4;fill-opacity:1;stroke:none"
       d="m 161.79213,332.76342 c -21.42857,45.71429 -22.85713,62.5 3.57143,98.57143 -17.14285,-11.78571 -34.28571,-20.35714 -42.14285,-22.85714 -0.71429,-21.07143 21.78572,-52.14285 38.57142,-75.71429 z"
       id="path3028"
       inkscape:connector-curvature="0"
       sodipodi:nodetypes="cccc" />
  </g>
</svg>
