<?xml version="1.0" encoding="UTF-8" standalone="no"?>
<!-- Created with Inkscape (http://www.inkscape.org/) -->

<svg
   xmlns:dc="http://purl.org/dc/elements/1.1/"
   xmlns:cc="http://creativecommons.org/ns#"
   xmlns:rdf="http://www.w3.org/1999/02/22-rdf-syntax-ns#"
   xmlns:svg="http://www.w3.org/2000/svg"
   xmlns="http://www.w3.org/2000/svg"
   xmlns:sodipodi="http://sodipodi.sourceforge.net/DTD/sodipodi-0.dtd"
   xmlns:inkscape="http://www.inkscape.org/namespaces/inkscape"
   width="210mm"
   height="297mm"
   id="svg3040"
   version="1.1"
   inkscape:version="0.48.4 r9939"
   sodipodi:docname="croixmaster.svg">
  <defs
     id="defs3042" />
  <sodipodi:namedview
     id="base"
     pagecolor="#ffffff"
     bordercolor="#666666"
     borderopacity="1.0"
     inkscape:pageopacity="0.0"
     inkscape:pageshadow="2"
     inkscape:zoom="0.49497475"
     inkscape:cx="454.76265"
     inkscape:cy="437.48015"
     inkscape:document-units="px"
     inkscape:current-layer="layer1"
     showgrid="false"
     inkscape:window-width="1600"
     inkscape:window-height="876"
     inkscape:window-x="0"
     inkscape:window-y="24"
     inkscape:window-maximized="1" />
  <metadata
     id="metadata3045">
    <rdf:RDF>
      <cc:Work
         rdf:about="">
        <dc:format>image/svg+xml</dc:format>
        <dc:type
           rdf:resource="http://purl.org/dc/dcmitype/StillImage" />
        <dc:title></dc:title>
      </cc:Work>
    </rdf:RDF>
  </metadata>
  <g
     inkscape:label="Calque 1"
     inkscape:groupmode="layer"
     id="layer1">
    <path
       inkscape:connector-curvature="0"
       id="path3889"
       d="m 488.0908,41.224211 c 55.1295,8.64798 100.5074,77.826079 110.2374,117.821439 -56.2101,27.02375 -129.3362,90.54586 -158.5188,124.05205 65.9349,51.66913 94.5961,81.6466 152.4982,107.85714 -31.3481,51.88643 -80.2502,102.06805 -117.0047,108.55715 -66.987,-41.68072 -94.6697,-60.43671 -146.8743,-99.1529 -31.9238,45.32333 -37.7316,59.58825 -63.1461,126.7589 -56.21008,-3.2428 -122.13848,-57.27912 -142.67388,-85.38488 31.0554,-57.35256 50.9058,-100.48403 84.5449,-138.59013 C 170.78132,270.71434 134.84732,232.44526 91.105622,189.42859 110.56262,111.59598 180.36982,58.244261 216.34772,47.804851 244.81572,93.303661 302.3394,152.39407 322.5014,173.28036 352.7682,133.28502 437.2827,58.518691 488.0908,41.224211 z m -3.4303,53.53186 c -12.5988,0.63267 -162.547,136.151679 -169.2298,154.715029 -27.873,-20.34364 -77.14068,-68.67539 -98.80288,-93.52909 -12.8235,9.80617 -43.7567,37.7133 -52.8085,49.0281 9.0518,12.82345 66.3771,69.40659 107.11038,94.29916 -7.5432,24.13826 -64.87008,88.25486 -83.72808,146.33755 15.0864,4.52592 25.6563,11.30616 36.2168,26.39256 5.2803,-38.47035 57.32808,-120.68011 88.25528,-135.76652 43.7506,33.1901 106.338,62.59839 127.459,79.94776 6.7889,-4.52593 12.0521,-31.12093 30.173,-49.77484 -35.4531,-24.89256 -73.0056,-46.302 -101.8133,-82.23465 28.6642,-52.04811 77.6968,-95.04196 155.3918,-139.54688 -6.7889,-37.71603 -29.4361,-46.003239 -37.7337,-49.774839 -0.1296,-0.0589 -0.29,-0.10337 -0.49,-0.0934 z"
       style="fill:#0000ff;stroke:#0000ff;stroke-width:0.37833539px" />
    <g
       id="g3893"
       transform="matrix(0.52387431,0,0,0.57019652,634.972,176.00586)">
      <path
         style="fill:#ffffff;stroke:#e10000;stroke-width:1px"
         inkscape:connector-curvature="0"
         d="m -958.72,104.88 c 9.0914,31.315 104.05,127.28 225.26,110.11 121.22,-17.173 171.47,-121.18 161.62,-159.6 -76.772,-27.274 -268.7,-23.234 -386.89,49.497 z"
         id="path3895" />
      <path
         style="fill:#0000ff;stroke:#080000;stroke-width:1px"
         inkscape:connector-curvature="0"
         d="m -971.77,109.89 c -57.579,-93.944 67.02,-252.04 249.51,-240.42 182.49,11.627 157.58,163.64 157.58,185.87 -191.93,-44.447 -343.45,19.193 -407.09,54.548 z"
         id="path3897" />
      <path
         style="fill:#0000b4"
         inkscape:connector-curvature="0"
         d="m -850.55,-101.23 c -27.274,41.416 -67.68,127.28 -33.335,125.26 34.345,-2.0203 143.44,-28.284 310.12,20.203 -106.07,-17.173 -207.88,-32.834 -394.97,61.619 -20.75,4.8507 -55.558,-144.45 118.19,-207.08 z"
         id="path3899" />
    </g>
    <path
       style="fill:none;stroke:#e10000;stroke-width:1.09308982"
       inkscape:connector-curvature="0"
       d="m 194.15272,210.44117 c 1.05839,23.03936 15.88073,42.05256 42.86445,42.62276 54.50912,1.15197 56.93466,-42.90672 51.86093,-52.41475 -29.73929,-5.23953 -73.02807,1.72798 -94.72695,9.79199 z"
       id="path3901" />
    <path
       style="fill:none;stroke:#e10000;stroke-width:0.54654491px"
       inkscape:connector-curvature="0"
       d="m 219.2463,204.34121 c 0,17.8557 9.83522,28.56342 26.76946,26.83572 22.22589,-2.30393 24.87198,-20.22943 23.81375,-31.74911 -12.94912,-0.77661 -35.20488,1.63213 -50.58321,4.91333 z"
       id="path3903" />
    <path
       style="fill:#e10000"
       inkscape:connector-curvature="0"
       d="m 194.94901,211.59354 19.58033,-3.45591 -19.05069,5.76013 19.05069,-4.31987 -18.25702,6.04808 18.52157,-4.60788 -17.19879,6.91193 17.72791,-5.47184 -17.72791,9.21552 18.52158,-7.19987 -16.93424,9.79198 17.19879,-7.48782 -14.81726,10.07993 16.14057,-7.77577 -15.08182,12.67148 15.87601,-10.94378 -12.7008,14.11179 13.22992,-11.51968 -10.31928,13.24795 11.90662,-10.94378 -8.73194,14.68769 9.79016,-13.24795 -6.3504,15.55154 7.93774,-13.24794 -4.49814,14.97564 6.61496,-13.82385 -4.49814,16.41539 6.3504,-14.97564 -4.23353,15.55154 6.61496,-14.11179 -3.43976,14.68769 5.29218,-13.24795 -1.32299,13.24795 2.91054,-12.67148 0.2646,13.24795 2.38137,-12.95943 0.79378,13.24795 1.32299,-11.80763 2.38137,13.53589 0.2646,-12.67147 2.38138,12.38352 -0.26459,-12.67147 2.11676,12.09558 v -12.09558 l 2.11677,11.23173 0.26459,-10.94378 1.85216,10.94378 1.32299,-11.51968 1.5876,11.80763 0.79378,-11.51968 2.64598,10.36788 -0.52922,-10.94378 3.17515,9.21551 -1.05838,-10.07993 3.96892,9.79198 -2.11676,-9.79198 4.49814,9.79198 -3.17515,-10.65583 5.02731,8.63962 -2.91054,-10.07993 5.82129,8.92756 -4.23354,-10.65583 7.40864,9.79198 -6.08585,-12.38352 8.2023,9.21551 -5.82129,-10.94378 8.46685,8.06372 -6.87951,-11.23173 9.26105,8.63962 -7.93775,-11.23173 9.52561,9.21551 -7.14408,-11.23173 10.05472,8.35167 -8.73193,-10.65583 9.5256,6.62397 -9.5256,-8.63962 10.05472,4.60787 -9.79017,-6.62397 11.11295,3.45591 -10.84839,-6.33603 11.64206,3.45591 -10.05472,-6.33603 10.84839,3.45591 -10.84839,-5.76013 10.31928,2.59194 -9.79017,-4.31986 9.79017,1.43997 -9.52561,-3.4559 c 0,0 7.93774,0.57601 12.17169,0.28799 2.38138,10.94378 3.43976,40.03122 -37.04367,49.53468 -17.1988,3.45591 -53.4509,1.72793 -57.15469,-40.31916 z"
       id="path3905" />
    <path
       style="fill:#ff0000"
       inkscape:connector-curvature="0"
       d="m 232.14933,202.60439 c 0.37419,6.31264 8.04513,12.82942 15.71623,11.81105 7.67109,-1.0182 11.03855,-8.14583 10.29046,-14.45848 -5.42577,0.61091 -15.15516,0 -26.00669,2.64737 z"
       id="path3907" />
    <path
       id="path3911"
       d="m 505.31031,231.97263 c -3.67077,14.70442 -42.01158,59.7662 -90.95173,51.70378 -48.94419,-8.06384 -69.2333,-56.90186 -65.25623,-74.94254 30.99772,-12.80691 108.49121,-10.90987 156.212,23.24205 z"
       inkscape:connector-curvature="0"
       style="fill:#ffffff;stroke:#e10000;stroke-width:0.43542281px" />
    <path
       id="path3913"
       d="m 510.57942,234.32515 c 23.24829,-44.11279 -27.06022,-118.3491 -100.74299,-112.89276 -73.68277,5.45963 -63.62503,76.83958 -63.62503,87.278 77.4943,-20.87074 138.67252,9.01236 164.36802,25.61382 z"
       inkscape:connector-curvature="0"
       style="fill:#0000ff;stroke:#080000;stroke-width:0.43542281px" />
    <path
       id="path3915"
       d="m 461.63523,135.19064 c 11.01224,19.44749 27.3267,59.7662 13.45945,58.81768 -13.86725,-0.94866 -57.91581,-13.28117 -125.21509,9.48662 42.82718,-8.06384 83.93433,-15.41769 159.47441,28.93411 8.37809,2.27772 22.43228,-67.82863 -47.72079,-97.23747 z"
       inkscape:connector-curvature="0"
       style="fill:#0000b4" />
    <path
       style="fill:none;stroke:#e10000;stroke-width:0.87084562"
       inkscape:connector-curvature="0"
       d="m 457.965,211.08263 c -0.8157,18.97324 -12.2397,34.63087 -33.0367,35.10044 -42.0116,0.94866 -43.881,-35.33428 -39.9706,-43.16427 22.9209,-4.31483 56.2846,1.42301 73.0085,8.06383 z"
       id="path3917" />
    <path
       style="fill:none;stroke:#e10000;stroke-width:0.43542281px"
       inkscape:connector-curvature="0"
       d="m 438.6247,206.05923 c 0,14.70442 -7.5802,23.52238 -20.6319,22.0996 -17.13,-1.89733 -19.1694,-16.65922 -18.3538,-26.14584 9.9802,-0.63955 27.1333,1.34408 38.9857,4.04619 z"
       id="path3919" />
    <path
       style="fill:#e10000"
       inkscape:connector-curvature="0"
       d="m 457.3513,212.03162 -15.0911,-2.84598 14.6829,4.74354 -14.6829,-3.55747 14.0712,4.98068 -14.2751,-3.79465 13.2556,5.69206 -13.6634,-4.50613 13.6634,7.58911 -14.2751,-5.9292 13.0517,8.06384 -13.2556,-6.16632 11.4201,8.30096 -12.44,-6.40345 11.624,10.43513 -12.2361,-9.01235 9.7889,11.62126 -10.1967,-9.48662 7.9534,10.90987 -9.1768,-9.01236 6.73,12.09552 -7.5456,-10.90987 4.8944,12.80691 -6.1178,-10.90987 3.4668,12.33265 -5.0983,-11.38413 3.4668,13.5183 -4.8944,-12.33265 3.2629,12.80691 -5.0983,-11.62125 2.6511,12.09551 -4.0788,-10.90986 1.0197,10.90986 -2.2433,-10.43513 -0.2039,10.90986 -1.8354,-10.67226 -0.6118,10.90986 -1.0196,-9.72374 -1.8354,11.14699 -0.204,-10.43513 -1.8353,10.198 0.2039,-10.43513 -1.6315,9.96087 v -9.96087 l -1.6314,9.24948 -0.2039,-9.01235 -1.4275,9.01235 -1.0197,-9.48661 -1.2236,9.72374 -0.6118,-9.48661 -2.0393,8.53809 0.4079,-9.01235 -2.4472,7.5891 0.8157,-8.30096 -3.0589,8.06383 1.6314,-8.06383 -3.4668,8.06383 2.4471,-8.77522 -3.8746,7.11484 2.2432,-8.30096 -4.4866,7.35197 3.2629,-8.77523 -5.71,8.06384 4.6905,-10.19801 -6.3217,7.58911 4.4866,-9.01236 -6.5257,6.64059 5.3023,-9.24949 -7.1378,7.11485 6.1179,-9.24949 -7.3417,7.5891 5.5062,-9.24948 -7.7495,6.87771 6.7299,-8.77522 -7.3416,5.45493 7.3416,-7.11484 -7.7494,3.79464 7.5455,-5.45493 -8.565,2.84598 8.3611,-5.2178 -8.9728,2.84598 7.7494,-5.2178 -8.3611,2.84599 8.3611,-4.74355 -7.9533,2.1345 7.5455,-3.55747 -7.5455,1.18584 7.3416,-2.84598 c 0,0 -6.1178,0.47435 -9.381,0.23717 -1.8354,9.01235 -2.6511,32.96626 28.5505,40.79249 13.2556,2.84599 41.196,1.42297 44.0506,-33.20339 z"
       id="path3921" />
    <path
       style="fill:#ff0000"
       inkscape:connector-curvature="0"
       d="m 428.6801,204.62894 c -0.2885,5.19855 -6.2006,10.5652 -12.113,9.72656 -5.9123,-0.8385 -8.5076,-6.7082 -7.9311,-11.90675 4.1818,0.50309 11.6805,0 20.0441,2.18014 z"
       id="path3923" />
    <path
       id="path3925"
       d="m 396.4187,327.31601 c -91.3308,23.12889 -126.2385,19.5534 -190.36288,-9.90331 19.807,34.11117 49.49238,53.00021 89.13018,48.41634 47.3155,6.60228 68.2234,-6.60229 101.2349,-38.51334 z"
       inkscape:connector-curvature="0"
       style="fill:#ffffff;stroke:#080000;stroke-width:0.54465419" />
    <path
       sodipodi:nodetypes="cccc"
       inkscape:connector-curvature="0"
       id="path3927"
       d="m 547.2105,448.85806 c -74.4393,57.31873 -120.0062,15.44072 -167.1429,-11.42857 21.3011,13.53681 54.2783,36.21065 94.6249,60.671 36.5586,-7.107 60.4123,-35.21669 72.518,-49.24243 z"
       style="fill:#0000b4;fill-opacity:1;stroke:none" />
    <path
       sodipodi:nodetypes="cccc"
       inkscape:connector-curvature="0"
       id="path3929"
       d="m 171.49622,354.03663 c -15.8929,41.07143 -59.4643,80.35715 -3.5715,131.24996 -17.8571,-16.96423 -22.8571,-15.17853 -45,-43.57139 15,-31.96428 39.2857,-72.49999 48.5715,-87.67857 z"
       style="fill:#0000b4;fill-opacity:1;stroke:none" />
    <path
       sodipodi:nodetypes="cccc"
       inkscape:connector-curvature="0"
       id="path3931"
       d="m 241.12112,83.396311 c -35.3572,-38.92857 -71.0572,3.41298 -89.6287,8.41299 20.9508,-21.51651 48.2001,-39.59274 64.6287,-43.16417 2.4127,4.8886 14.2857,22.60832 25,34.75118 z"
       style="fill:#0000b4;fill-opacity:1;stroke:none" />
    <path
       sodipodi:nodetypes="cccc"
       inkscape:connector-curvature="0"
       id="path3933"
       d="m 557.9248,84.572341 c 21.4285,45.714289 22.8571,62.499999 -3.5715,98.571429 17.1429,-11.78571 34.2857,-20.35714 42.1429,-22.85714 0.7143,-21.07143 -21.7857,-52.14285 -38.5714,-75.714289 z"
       style="fill:#0000b4;fill-opacity:1;stroke:none" />
  </g>
</svg>
