<?xml version="1.0" encoding="UTF-8" standalone="no"?>
<!-- Created with Inkscape (http://www.inkscape.org/) -->

<svg
   xmlns:dc="http://purl.org/dc/elements/1.1/"
   xmlns:cc="http://creativecommons.org/ns#"
   xmlns:rdf="http://www.w3.org/1999/02/22-rdf-syntax-ns#"
   xmlns:svg="http://www.w3.org/2000/svg"
   xmlns="http://www.w3.org/2000/svg"
   xmlns:sodipodi="http://sodipodi.sourceforge.net/DTD/sodipodi-0.dtd"
   xmlns:inkscape="http://www.inkscape.org/namespaces/inkscape"
   id="svg3955"
   height="297mm"
   width="210mm"
   version="1.1"
   inkscape:version="0.48.4 r9939"
   sodipodi:docname="trianglemaster.svg">
  <defs
     id="defs27" />
  <sodipodi:namedview
     pagecolor="#ffffff"
     bordercolor="#666666"
     borderopacity="1"
     objecttolerance="10"
     gridtolerance="10"
     guidetolerance="10"
     inkscape:pageopacity="0"
     inkscape:pageshadow="2"
     inkscape:window-width="1513"
     inkscape:window-height="848"
     id="namedview25"
     showgrid="false"
     inkscape:zoom="0.44851479"
     inkscape:cx="120.64841"
     inkscape:cy="467.73741"
     inkscape:window-x="0"
     inkscape:window-y="24"
     inkscape:window-maximized="0"
     inkscape:current-layer="g3778" />
  <metadata
     id="metadata3960">
    <rdf:RDF>
      <cc:Work
         rdf:about="">
        <dc:format>image/svg+xml</dc:format>
        <dc:type
           rdf:resource="http://purl.org/dc/dcmitype/StillImage" />
        <dc:title />
      </cc:Work>
    </rdf:RDF>
  </metadata>
  <g
     transform="matrix(-0.35733564,0,0,0.35733564,1034.0986,158.14305)"
     id="g3778">
    <path
       style="fill:#00ff00;stroke:#00ff00;stroke-width:1px"
       inkscape:connector-curvature="0"
       d="m 2160,-413.34 c -602.4,314.05 -1051.4,1017.1 -1185.7,1454.2 477.1,-165.68 1240,-197.11 1845.7,0 C 2374.3,612.29 2208.6,32.36 2160,-413.34 z m -201.2,446 c -5.9,102.59 23.2,344.55 147.1,549.75 -110.4,-54.21 -648.5,92.93 -807.2,158.75 114.2,-230.36 429.7,-611.71 660.1,-708.5 z"
       id="path3780" />
    <g
       transform="matrix(-0.80066,0,0,0.80066,2390.491,482.71)"
       id="g3782">
      <g
         id="g3784">
        <path
           style="fill:#ffffff;stroke:#00c800;stroke-width:2.04590011px"
           inkscape:connector-curvature="0"
           d="M 1432.8,-255.45 C 1415,-188.61 1228.8,16.23 991.07,-20.43 753.35,-57.083 654.8,-279.09 674.11,-361.09 c 150.55,-58.215 526.94,-49.591 758.71,105.65 z"
           id="path3786" />
        <path
           style="fill:#00ff00;stroke:#080000;stroke-width:2.04590011px"
           inkscape:connector-curvature="0"
           d="m 1458.4,-244.75 c 112.92,-200.52 -131.43,-537.97 -489.3,-513.16 -357.87,24.816 -309.03,349.29 -309.03,396.73 376.39,-94.869 673.53,40.966 798.33,116.43 z"
           id="path3788" />
        <path
           style="fill:#00c800"
           inkscape:connector-curvature="0"
           d="m 1220.7,-695.38 c 53.486,88.401 132.73,271.67 65.372,267.36 -67.353,-4.3122 -281.3,-60.371 -608.16,43.122 208,-36.654 407.67,-70.082 774.56,131.52 40.692,10.354 108.95,-308.32 -231.77,-442 z"
           id="path3790" />
      </g>
      <path
         style="fill:none;stroke:#e10000;stroke-width:4.09180021"
         inkscape:connector-curvature="0"
         d="m 1202.9,-350.4 c -3.9619,86.245 -59.448,157.42 -160.46,159.55 -204.04,4.3122 -213.13,-160.62 -194.14,-196.21 111.33,-19.613 273.38,6.4683 354.6,36.654 z"
         id="path3792" />
      <path
         style="fill:none;stroke:#e10000;stroke-width:2.04590011px"
         inkscape:connector-curvature="0"
         d="m 1108.9,-373.24 c 0,66.84 -36.818,106.92 -100.21,100.46 -83.201,-8.6245 -93.106,-75.726 -89.144,-118.85 48.474,-2.9072 131.78,6.1096 189.35,18.392 z"
         id="path3794" />
      <path
         style="fill:#e10000"
         inkscape:connector-curvature="0"
         d="m 1199.9,-346.09 -73.296,-12.937 71.315,21.561 -71.315,-16.171 68.344,22.639 -69.334,-17.249 64.382,25.873 -66.363,-20.483 66.363,34.498 -69.334,-26.951 63.391,36.654 -64.382,-28.029 55.467,37.732 -60.42,-29.108 56.458,47.435 -59.429,-40.966 47.544,52.825 -49.524,-43.122 38.629,49.591 -44.572,-40.966 32.686,54.981 -36.648,-49.591 23.772,58.215 -29.715,-49.591 16.838,56.059 -24.762,-51.747 16.838,61.449 -23.772,-56.059 15.848,58.215 -24.762,-52.825 12.876,54.981 -19.81,-49.591 4.9525,49.591 -10.895,-47.435 -0.9905,49.591 -8.9144,-48.513 -2.9715,49.591 -4.9524,-44.2 -8.9144,50.669 -0.9905,-47.435 -8.9144,46.356 0.9904,-47.435 -7.9239,45.278 v -45.278 l -7.9239,42.044 -0.9905,-40.966 -6.9334,40.966 -4.9524,-43.122 -5.9429,44.2 -2.9715,-43.122 -9.9049,38.81 1.981,-40.966 -11.886,34.498 3.962,-37.732 -14.857,36.654 7.9239,-36.654 -16.838,36.654 11.886,-39.888 -18.819,32.342 10.895,-37.732 -21.791,33.42 15.848,-39.888 -27.734,36.654 22.781,-46.356 -30.705,34.498 21.791,-40.966 -31.696,30.186 25.753,-42.044 -34.667,32.342 29.715,-42.044 -35.658,34.498 26.743,-42.044 -37.639,31.264 32.686,-39.888 -35.658,24.795 35.658,-32.342 -37.639,17.249 36.648,-24.795 -41.601,12.937 40.61,-23.717 -43.582,12.937 37.639,-23.717 -40.61,12.937 40.61,-21.561 -38.629,9.7025 36.648,-16.171 -36.648,5.3903 35.658,-12.937 c 0,0 -29.715,2.1561 -45.563,1.0781 -8.9144,40.966 -12.876,149.85 138.67,185.43 64.382,12.937 200.08,6.4683 213.95,-150.93 z"
         id="path3796" />
      <path
         style="fill:#ff0000"
         inkscape:connector-curvature="0"
         d="m 1060.6,-379.74 c -1.4007,23.631 -30.116,48.025 -58.832,44.213 -28.716,-3.8115 -41.323,-30.492 -38.521,-54.123 20.311,2.2869 56.731,0 97.353,9.9099 z"
         id="path3798" />
    </g>
    <g
       transform="matrix(-0.61658,0,0,0.61658,2101.991,468.9)"
       id="g3800">
      <g
         id="g3802">
        <path
           style="fill:#ffffff;stroke:#00c800;stroke-width:2.04590011px"
           inkscape:connector-curvature="0"
           d="m -431.61,-209.73 c 17.829,66.84 204.04,271.67 441.76,235.02 237.72,-36.658 336.27,-258.66 316.96,-340.67 -150.55,-58.215 -526.94,-49.591 -758.71,105.65 z"
           id="path3804" />
        <path
           style="fill:#00ff00;stroke:#080000;stroke-width:2.04590011px"
           inkscape:connector-curvature="0"
           d="m -457.2,-199.04 c -112.92,-200.52 131.43,-537.97 489.3,-513.16 357.87,24.816 309.03,349.29 309.03,396.73 -376.39,-94.869 -673.53,40.966 -798.33,116.43 z"
           id="path3806" />
        <path
           style="fill:#00c800"
           inkscape:connector-curvature="0"
           d="m -219.48,-649.66 c -53.486,88.401 -132.73,271.67 -65.372,267.36 67.353,-4.3122 281.3,-60.371 608.16,43.122 -208,-36.654 -407.67,-70.082 -774.56,131.52 -40.692,10.354 -108.95,-308.32 231.77,-442 z"
           id="path3808" />
      </g>
      <path
         style="fill:none;stroke:#e10000;stroke-width:4.09180021"
         inkscape:connector-curvature="0"
         d="m -201.65,-304.69 c 3.9619,86.245 59.448,157.42 160.46,159.55 204.04,4.3122 213.13,-160.62 194.14,-196.21 -111.33,-19.613 -273.38,6.4683 -354.6,36.654 z"
         id="path3810" />
      <path
         style="fill:none;stroke:#e10000;stroke-width:2.04590011px"
         inkscape:connector-curvature="0"
         d="m -107.73,-327.52 c 0,66.84 36.818,106.92 100.21,100.46 83.201,-8.6245 93.106,-75.726 89.144,-118.85 -48.474,-2.9072 -131.78,6.1096 -189.35,18.392 z"
         id="path3812" />
      <path
         style="fill:#e10000"
         inkscape:connector-curvature="0"
         d="m -198.68,-300.37 73.296,-12.937 -71.315,21.561 71.315,-16.171 -68.344,22.639 69.334,-17.249 -64.382,25.873 66.363,-20.483 -66.363,34.498 69.334,-26.951 -63.391,36.654 64.382,-28.029 -55.467,37.732 60.42,-29.108 -56.458,47.435 59.429,-40.966 -47.544,52.825 49.524,-43.122 -38.629,49.591 44.572,-40.966 -32.686,54.981 36.648,-49.591 -23.772,58.215 29.715,-49.591 -16.838,56.059 24.762,-51.747 -16.838,61.449 23.772,-56.059 -15.848,58.215 24.762,-52.825 -12.876,54.981 19.81,-49.591 -4.9525,49.591 10.895,-47.435 0.9905,49.591 8.9144,-48.513 2.9715,49.591 4.9524,-44.2 8.9144,50.669 0.9905,-47.435 8.9144,46.356 -0.9904,-47.435 7.9239,45.278 v -45.278 l 7.9239,42.044 0.9905,-40.966 6.9334,40.966 4.9524,-43.122 5.9429,44.2 2.9715,-43.122 9.9049,38.81 -1.981,-40.966 11.886,34.498 -3.962,-37.732 14.857,36.654 -7.9239,-36.654 16.838,36.654 -11.886,-39.888 18.819,32.342 -10.895,-37.732 21.791,33.42 -15.848,-39.888 27.734,36.654 -22.781,-46.356 30.705,34.498 -21.791,-40.966 31.696,30.186 -25.753,-42.044 34.667,32.342 -29.715,-42.044 35.658,34.498 -26.743,-42.044 37.639,31.264 -32.686,-39.888 35.658,24.795 -35.658,-32.342 37.639,17.249 -36.648,-24.795 41.601,12.937 -40.61,-23.717 43.582,12.937 -37.639,-23.717 40.61,12.937 -40.61,-21.561 38.629,9.7025 -36.648,-16.171 36.648,5.3903 -35.658,-12.937 c 0,0 29.715,2.1561 45.563,1.0781 8.9144,40.966 12.876,149.85 -138.67,185.43 -64.382,12.937 -200.08,6.4683 -213.95,-150.93 z"
         id="path3814" />
      <path
         style="fill:#ff0000"
         inkscape:connector-curvature="0"
         d="m -59.421,-334.02 c 1.4007,23.631 30.116,48.025 58.832,44.213 28.716,-3.8115 41.323,-30.492 38.521,-54.123 -20.311,2.2869 -56.731,0 -97.353,9.9099 z"
         id="path3816" />
    </g>
    <path
       style="fill:#ffffff;stroke:#080000;stroke-width:1.1997"
       inkscape:connector-curvature="0"
       d="m 1954,741.11 c -201.17,50.945 -278.07,43.069 -419.31,-21.814 43.628,75.137 109.02,116.74 196.33,106.65 104.22,14.543 150.27,-14.543 222.99,-84.832 z"
       id="path3818" />
  </g>
  <path
     sodipodi:nodetypes="cccc"
     inkscape:connector-curvature="0"
     id="path3820"
     d="m 624.43362,391.1826 c 55.58865,142.99432 -15.87842,108.13951 -65.56308,106.78311 25.94895,1.7732 114.42825,24.26131 125.4933,31.63801 0.89362,-7.4893 -35.86965,-99.46524 -59.93022,-138.42112 z"
     style="fill:#00c800;fill-opacity:1;stroke:none" />
  <path
     sodipodi:nodetypes="cccc"
     inkscape:connector-curvature="0"
     id="path3822"
     d="M 221.49481,487.53031 C 193.46337,485.68611 111.9509,465.03137 117.11458,426.67256 105.6807,439.95061 55.888033,508.55392 28.225423,528.47092 63.633553,513.34872 178.34115,491.95631 221.49481,487.53031 z"
     style="fill:#00c800;fill-opacity:1;stroke:none" />
  <path
     sodipodi:nodetypes="cccc"
     inkscape:connector-curvature="0"
     id="path3824"
     d="m 334.54266,55.256002 c -49.6156,-33.86517 -63.9158,-40.488 -71.18511,-42.78482 -1.29092,7.00785 -2.4231,26.67593 -6.82344,44.07574 3.50392,-25.63401 60.30448,-15.30664 78.00855,-1.29092 z"
     style="fill:#00c800;fill-opacity:1;stroke:none" />
</svg>
