<?xml version="1.0" encoding="UTF-8" standalone="no"?>
<!-- Created with Inkscape (http://www.inkscape.org/) -->

<svg
   xmlns:dc="http://purl.org/dc/elements/1.1/"
   xmlns:cc="http://creativecommons.org/ns#"
   xmlns:rdf="http://www.w3.org/1999/02/22-rdf-syntax-ns#"
   xmlns:svg="http://www.w3.org/2000/svg"
   xmlns="http://www.w3.org/2000/svg"
   xmlns:sodipodi="http://sodipodi.sourceforge.net/DTD/sodipodi-0.dtd"
   xmlns:inkscape="http://www.inkscape.org/namespaces/inkscape"
   width="210mm"
   height="297mm"
   id="svg5032"
   version="1.1"
   inkscape:version="0.48.4 r9939"
   sodipodi:docname="decormaster.svg">
  <defs
     id="defs5034" />
  <sodipodi:namedview
     id="base"
     pagecolor="#ffffff"
     bordercolor="#666666"
     borderopacity="1.0"
     inkscape:pageopacity="0.0"
     inkscape:pageshadow="2"
     inkscape:zoom="0.16"
     inkscape:cx="1409.9605"
     inkscape:cy="301.42736"
     inkscape:document-units="px"
     inkscape:current-layer="layer1"
     showgrid="false"
     inkscape:window-width="1535"
     inkscape:window-height="876"
     inkscape:window-x="65"
     inkscape:window-y="24"
     inkscape:window-maximized="1" />
  <metadata
     id="metadata5037">
    <rdf:RDF>
      <cc:Work
         rdf:about="">
        <dc:format>image/svg+xml</dc:format>
        <dc:type
           rdf:resource="http://purl.org/dc/dcmitype/StillImage" />
        <dc:title></dc:title>
      </cc:Work>
    </rdf:RDF>
  </metadata>
  <g
     inkscape:label="Calque 1"
     inkscape:groupmode="layer"
     id="layer1">
    <rect
       style="fill:#00ffff"
       id="rect3075"
       width="6343.75"
       height="2181.25"
       x="-2006.25"
       y="-997.63782" />
    <path
       style="fill:#c87137;stroke:#000000;stroke-width:1px;stroke-linecap:butt;stroke-linejoin:miter;stroke-opacity:1"
       d="m 98.994949,747.29611 c 539.421461,-2.0203 466.690481,2.0203 525.279321,-4.04061 181.6436,-115.4864 177.09172,-631.91345 94.95435,-595.99 C 626.36244,347.89241 197.70531,34.03498 58.588847,205.85435 -14.888016,453.43632 98.994949,747.29611 98.994949,747.29611 z"
       id="path5046"
       inkscape:connector-curvature="0"
       sodipodi:nodetypes="ccccc" />
    <path
       style="fill:#ff9955;stroke:#000000;stroke-width:1px;stroke-linecap:butt;stroke-linejoin:miter;stroke-opacity:1"
       d="M -29.342359,151.98789 C 22.332112,104.62791 130.65248,-104.38674 395.9798,-109.31324 596.72038,-113.04052 679.75451,-50.718398 742.65583,6.9196339 802.9647,62.182148 847.21258,111.99702 847.37016,147.23454 847.67183,214.69106 708.09284,180.10723 674.7819,211.91527 368.89743,341.5989 -123.40001,239.25906 -29.342359,151.98789 z"
       id="path5048"
       inkscape:connector-curvature="0"
       sodipodi:nodetypes="cssscc" />
    <path
       style="fill:none;stroke:#000000;stroke-width:1px;stroke-linecap:butt;stroke-linejoin:miter;stroke-opacity:1"
       d="m 428.30467,745.27581 c 4.68002,-59.38704 30.02876,-127.13275 -12.12182,-234.35539 250.24557,-192.002 221.2597,44.98192 183.84776,232.33508 z"
       id="path5050"
       inkscape:connector-curvature="0"
       sodipodi:nodetypes="cccc" />
    <path
       style="fill:#1a1a1a;fill-opacity:1;stroke:#160002;stroke-width:0.67882251999999998;stroke-linejoin:round;stroke-miterlimit:4;stroke-opacity:1;stroke-dasharray:none"
       d="m 429.97035,742.04363 c 0,-0.45887 2.21363,-17.05063 4.91918,-36.87057 6.83052,-50.03799 8.11323,-74.37782 5.30615,-100.68599 -3.07499,-28.81908 -7.01007,-47.80398 -15.09029,-72.80348 l -6.55336,-20.27555 15.30561,-11.29399 c 61.54229,-45.41196 112.68673,-65.26288 143.98522,-55.88562 10.56756,3.16612 24.94082,16.12045 30.8713,27.8237 10.6941,21.10377 12.15748,31.46649 12.14009,85.96793 -0.0182,55.289 -1.48981,69.70972 -14.46719,141.71272 l -7.33505,40.69745 -7.26416,1.20164 c -8.09117,1.33843 -161.8175,1.72962 -161.8175,0.41176 z"
       id="path5052"
       inkscape:connector-curvature="0" />
    <path
       style="fill:#ff7f2a;stroke:#000000;stroke-width:1px;stroke-linecap:butt;stroke-linejoin:miter;stroke-opacity:1"
       d="M 220.21325,-72.947752 C -195.40721,231.71226 167.55342,236.13934 175.76654,262.42289 41.347239,257.61496 -118.15803,208.67882 -50.507627,171.50915 7.174686,20.352713 111.64741,-10.794469 220.21325,-72.947752 z"
       id="path5056"
       inkscape:connector-curvature="0"
       sodipodi:nodetypes="cccc" />
    <path
       style="fill:#333333;stroke:#000000;stroke-width:1px;stroke-linecap:butt;stroke-linejoin:miter;stroke-opacity:1"
       d="M 434.3656,494.75798 C 476.59726,479.4474 536.84024,428.76302 583.86817,442.23005 652.99338,481.80969 623.62346,620.44841 595.99,741.2352 606.18538,627.96927 652.78611,389.48763 434.3656,494.75798 z"
       id="path5060"
       inkscape:connector-curvature="0"
       sodipodi:nodetypes="cccc" />
    <path
       sodipodi:nodetypes="ccccc"
       inkscape:connector-curvature="0"
       id="path5062"
       d="m 2031.3641,755.37733 c -539.4215,-2.0203 -466.6905,2.0203 -525.2794,-4.04061 -181.6436,-115.4864 -177.0917,-631.91345 -94.9543,-595.99 92.8662,200.62691 521.5233,-113.23052 660.6398,58.58885 73.4768,247.58197 -40.4061,541.44176 -40.4061,541.44176 z"
       style="fill:#c87137;stroke:#000000;stroke-width:1px;stroke-linecap:butt;stroke-linejoin:miter;stroke-opacity:1" />
    <path
       sodipodi:nodetypes="cssscc"
       inkscape:connector-curvature="0"
       id="path5064"
       d="m 2159.7014,160.06911 c -51.6745,-47.35998 -159.9949,-256.37463 -425.3222,-261.30113 -200.7406,-3.72728 -283.7747,58.594842 -346.676,116.232874 -60.3089,55.262514 -104.5568,105.077386 -104.7144,140.314906 -0.3016,67.45652 139.2774,32.87269 172.5883,64.68073 305.8845,129.68363 798.1819,27.34379 704.1243,-59.92738 z"
       style="fill:#ff9955;stroke:#000000;stroke-width:1px;stroke-linecap:butt;stroke-linejoin:miter;stroke-opacity:1" />
    <path
       sodipodi:nodetypes="cccc"
       inkscape:connector-curvature="0"
       id="path5066"
       d="m 1702.0543,753.35703 c -4.68,-59.38704 -30.0287,-127.13275 12.1219,-234.35539 -250.2456,-192.002 -221.2597,44.98192 -183.8478,232.33508 z"
       style="fill:none;stroke:#000000;stroke-width:1px;stroke-linecap:butt;stroke-linejoin:miter;stroke-opacity:1" />
    <path
       inkscape:connector-curvature="0"
       id="path5068"
       d="m 1700.3887,750.12485 c 0,-0.45887 -2.2137,-17.05063 -4.9192,-36.87057 -6.8305,-50.03799 -8.1133,-74.37782 -5.3062,-100.68599 3.075,-28.81908 7.0101,-47.80398 15.0903,-72.80348 l 6.5534,-20.27555 -15.3056,-11.29399 c -61.5423,-45.41196 -112.6868,-65.26288 -143.9853,-55.88562 -10.5675,3.16612 -24.9408,16.12045 -30.8713,27.8237 -10.6941,21.10377 -12.1574,31.46649 -12.14,85.96793 0.018,55.289 1.4898,69.70972 14.4671,141.71272 l 7.3351,40.69745 7.2642,1.20164 c 8.0911,1.33843 161.8175,1.72962 161.8175,0.41176 z"
       style="fill:#1a1a1a;fill-opacity:1;stroke:#160002;stroke-width:0.67882252;stroke-linejoin:round;stroke-miterlimit:4;stroke-opacity:1;stroke-dasharray:none" />
    <path
       sodipodi:nodetypes="cccc"
       inkscape:connector-curvature="0"
       id="path5070"
       d="m 1910.1458,-64.866532 c 415.6204,304.660012 52.6598,309.087092 44.4467,335.370642 134.4193,-4.80793 293.9245,-53.74407 226.2741,-90.91374 C 2123.1843,28.433933 2018.7116,-2.7132486 1910.1458,-64.866532 z"
       style="fill:#ff7f2a;stroke:#000000;stroke-width:1px;stroke-linecap:butt;stroke-linejoin:miter;stroke-opacity:1" />
    <path
       sodipodi:nodetypes="cccc"
       inkscape:connector-curvature="0"
       id="path5072"
       d="m 1695.9934,502.8392 c -42.2317,-15.31058 -102.4746,-65.99496 -149.5026,-52.52793 -69.1252,39.57964 -39.7553,178.21836 -12.1218,299.00515 -10.1954,-113.26593 -56.7961,-351.74757 161.6244,-246.47722 z"
       style="fill:#333333;stroke:#000000;stroke-width:1px;stroke-linecap:butt;stroke-linejoin:miter;stroke-opacity:1" />
    <path
       style="fill:#784421;stroke:#000000;stroke-width:1px;stroke-linecap:butt;stroke-linejoin:miter;stroke-opacity:1"
       d="m -1341.4826,716.99154 533.36056,-4.04061 -8.08122,-501.03566 -529.31994,-4.04061 z"
       id="path5205"
       inkscape:connector-curvature="0" />
    <path
       style="fill:#a05a2c;stroke:#000000;stroke-width:1px;stroke-linecap:butt;stroke-linejoin:miter;stroke-opacity:1"
       d="m -1345.5232,668.50422 456.58896,-452.54834 72.73098,72.73098 -488.91384,424.26407 z"
       id="path5207"
       inkscape:connector-curvature="0" />
    <path
       style="fill:#a05a2c;stroke:#000000;stroke-width:1px;stroke-linecap:butt;stroke-linejoin:miter;stroke-opacity:1"
       d="m -1341.4826,288.68686 468.7108,424.26407 52.52793,-60.60915 -472.75143,-440.42651 z"
       id="path5209"
       inkscape:connector-curvature="0" />
    <path
       style="fill:#ffe6d5;stroke:#000000;stroke-width:1px;stroke-linecap:butt;stroke-linejoin:miter;stroke-opacity:1"
       d="m -1200.0612,595.77323 c 30.084,-75.55994 256.94073,-62.64899 270.72086,-12.12183 l -4.04061,-153.54319 c -88.17705,3.22185 -108.55105,-71.04542 -266.68025,12.12183 z"
       id="path5215"
       inkscape:connector-curvature="0"
       sodipodi:nodetypes="ccccc" />
    <flowRoot
       xml:space="preserve"
       id="flowRoot5217"
       style="font-size:100px;font-style:normal;font-weight:bold;line-height:125%;letter-spacing:0px;word-spacing:0px;fill:#000000;fill-opacity:1;stroke:none;font-family:Sans;-inkscape-font-specification:Sans Bold"
       transform="translate(56.568543,20.203051)"><flowRegion
         id="flowRegion5219"><rect
           id="rect5221"
           width="290.92429"
           height="145.4619"
           x="-1220.2642"
           y="401.82394"
           style="font-size:100px;font-weight:bold;-inkscape-font-specification:Sans Bold" /></flowRegion><flowPara
         id="flowPara5223"
         style="font-size:100px;font-style:italic;font-variant:normal;font-weight:bold;font-stretch:normal;font-family:Dubiel;-inkscape-font-specification:Dubiel Bold Italic">1664</flowPara><flowPara
         style="font-size:100px;font-style:italic;font-variant:normal;font-weight:bold;font-stretch:normal;font-family:Dubiel;-inkscape-font-specification:Dubiel Bold Italic"
         id="flowPara5235" /></flowRoot>    <flowRoot
       xml:space="preserve"
       id="flowRoot5225"
       style="fill:black;stroke:none;stroke-opacity:1;stroke-width:1px;stroke-linejoin:miter;stroke-linecap:butt;fill-opacity:1;font-family:Sans;font-style:normal;font-weight:normal;font-size:40px;line-height:125%;letter-spacing:0px;word-spacing:0px"><flowRegion
         id="flowRegion5227"><rect
           id="rect5229"
           width="242.43661"
           height="84.852814"
           x="-1191.98"
           y="422.02701" /></flowRegion><flowPara
         id="flowPara5231" /></flowRoot>    <path
       style="fill:none;stroke:#000000;stroke-width:1px;stroke-linecap:butt;stroke-linejoin:miter;stroke-opacity:1"
       d="m -1515.2288,2523.1443 16.1624,-690.9444 -96.9746,-12.1218 -52.528,-80.8122 -4.0406,-117.1777 c 0,0 52.528,-133.3401 68.6904,-125.2589 16.1625,8.0812 169.7056,-113.1371 169.7056,-113.1371 l 165.6651,16.1625 206.0711,20.203 -24.2437,101.0153 24.2437,161.6244 -68.6904,76.7716 -177.7868,84.8528 -60.6092,8.0812 -12.1218,666.7007 z"
       id="path5233"
       inkscape:connector-curvature="0" />
    <path
       style="fill:#916f6f;stroke:#000000;stroke-width:1px;stroke-linecap:butt;stroke-linejoin:miter;stroke-opacity:1"
       d="m 3507.8513,726.6859 533.3606,-4.0406 -8.0812,-501.03569 -529.32,-4.04061 z"
       id="path5205-3"
       inkscape:connector-curvature="0" />
    <path
       style="fill:#ac9393;stroke:#000000;stroke-width:1px;stroke-linecap:butt;stroke-linejoin:miter;stroke-opacity:1"
       d="m 3503.8107,678.1986 456.589,-452.54838 72.731,72.73098 -488.9139,424.2641 z"
       id="path5207-0"
       inkscape:connector-curvature="0" />
    <path
       style="fill:#ac9393;stroke:#000000;stroke-width:1px;stroke-linecap:butt;stroke-linejoin:miter;stroke-opacity:1"
       d="M 3507.8513,298.3812 3976.5621,722.6453 4029.09,662.0361 3556.3386,221.60961 z"
       id="path5209-2"
       inkscape:connector-curvature="0" />
    <path
       style="fill:#ffffff;stroke:#000000;stroke-width:1.15758669px;stroke-linecap:butt;stroke-linejoin:miter;stroke-opacity:1"
       d="m 3608.9454,637.7137 c 34.5566,-88.1461 295.1405,-73.0845 310.9694,-14.141 l -4.6414,-179.1191 c -101.2864,3.7586 -124.6895,-82.8795 -306.328,14.141 z"
       id="path5215-4"
       inkscape:connector-curvature="0"
       sodipodi:nodetypes="ccccc" />
    <flowRoot
       xml:space="preserve"
       id="flowRoot5217-0"
       style="font-size:75.36689758px;font-style:normal;font-weight:bold;line-height:125%;letter-spacing:0px;word-spacing:0px;fill:#000000;fill-opacity:1;stroke:none;font-family:Sans;-inkscape-font-specification:Sans Bold"
       transform="matrix(0.91264895,0,0,1,473.29481,723.26922)"><flowRegion
         id="flowRegion5219-6"><rect
           id="rect5221-0"
           width="389.01941"
           height="181.82738"
           x="-1268.7515"
           y="393.74274"
           style="font-size:75.36689758px;font-weight:bold;-inkscape-font-specification:Sans Bold" /></flowRegion><flowPara
         style="font-size:99.44242859px;font-style:italic;font-variant:normal;font-weight:bold;font-stretch:normal;font-family:Dubiel;-inkscape-font-specification:Dubiel Bold Italic"
         id="flowPara5235-0">Poliakov</flowPara></flowRoot>    <flowRoot
       xml:space="preserve"
       id="flowRoot5217-5"
       style="font-size:100px;font-style:normal;font-weight:bold;line-height:125%;letter-spacing:0px;word-spacing:0px;fill:#000000;fill-opacity:1;stroke:none;font-family:Sans;-inkscape-font-specification:Sans Bold"
       transform="translate(575.78689,1551.5943)"><flowRegion
         id="flowRegion5219-5"><rect
           id="rect5221-55"
           width="420.22385"
           height="145.46188"
           x="-1220.2642"
           y="401.82394"
           style="font-size:100px;font-weight:bold;-inkscape-font-specification:Sans Bold" /></flowRegion><flowPara
         id="flowPara5223-9"
         style="font-size:100px;font-style:italic;font-variant:normal;font-weight:bold;font-stretch:normal;font-family:Dubiel;-inkscape-font-specification:Dubiel Bold Italic">Heineken</flowPara><flowPara
         style="font-size:100px;font-style:italic;font-variant:normal;font-weight:bold;font-stretch:normal;font-family:Dubiel;-inkscape-font-specification:Dubiel Bold Italic"
         id="flowPara5235-8" /></flowRoot>    <rect
       style="fill:#00ff00"
       id="rect3077"
       width="6356.25"
       height="456.25"
       x="-2012.5"
       y="727.36218" />
    <path
       style="fill:#004421;fill-opacity:1;stroke:#000000;stroke-width:1px;stroke-linecap:butt;stroke-linejoin:miter;stroke-opacity:1"
       d="m 2510.34,731.92063 533.3606,-4.0406 -8.0812,-501.0357 -529.32,-4.0406 z"
       id="path5205-1"
       inkscape:connector-curvature="0" />
    <path
       style="fill:#00442d;fill-opacity:1;stroke:#000000;stroke-width:1px;stroke-linecap:butt;stroke-linejoin:miter;stroke-opacity:1"
       d="m 2506.2994,683.43333 456.589,-452.5484 72.731,72.731 -488.9139,424.2641 z"
       id="path5207-36"
       inkscape:connector-curvature="0" />
    <path
       style="fill:#00442d;fill-opacity:1;stroke:#000000;stroke-width:1px;stroke-linecap:butt;stroke-linejoin:miter;stroke-opacity:1"
       d="m 2510.34,303.61593 468.7108,424.2641 52.528,-60.6092 -122.4032,-114.0338 -350.3483,-326.3927 z"
       id="path5209-5"
       inkscape:connector-curvature="0"
       sodipodi:nodetypes="cccccc" />
    <path
       style="fill:#ffd42a;stroke:#000000;stroke-width:1.22066271px;stroke-linecap:butt;stroke-linejoin:miter;stroke-opacity:1"
       d="m 2575.1001,606.55143 c 44.877,-75.4736 383.2843,-62.5775 403.8404,-12.108 l -6.0274,-153.3678 c -131.5358,3.2182 -161.9281,-70.9642 -397.813,12.108 z"
       id="path5215-3"
       inkscape:connector-curvature="0"
       sodipodi:nodetypes="ccccc" />
  </g>
</svg>
