<?xml version="1.0" encoding="UTF-8" standalone="no"?>
<!-- Created with Inkscape (http://www.inkscape.org/) -->

<svg
   xmlns:dc="http://purl.org/dc/elements/1.1/"
   xmlns:cc="http://creativecommons.org/ns#"
   xmlns:rdf="http://www.w3.org/1999/02/22-rdf-syntax-ns#"
   xmlns:svg="http://www.w3.org/2000/svg"
   xmlns="http://www.w3.org/2000/svg"
   xmlns:sodipodi="http://sodipodi.sourceforge.net/DTD/sodipodi-0.dtd"
   xmlns:inkscape="http://www.inkscape.org/namespaces/inkscape"
   width="50"
   height="50"
   id="svg3215"
   version="1.1"
   inkscape:version="0.48.4 r9939"
   sodipodi:docname="huted.svg">
  <defs
     id="defs3217" />
  <sodipodi:namedview
     id="base"
     pagecolor="#ffffff"
     bordercolor="#666666"
     borderopacity="1.0"
     inkscape:pageopacity="0.0"
     inkscape:pageshadow="2"
     inkscape:zoom="2.8"
     inkscape:cx="209.01002"
     inkscape:cy="63.160972"
     inkscape:document-units="px"
     inkscape:current-layer="layer1"
     showgrid="false"
     inkscape:window-width="1535"
     inkscape:window-height="876"
     inkscape:window-x="65"
     inkscape:window-y="24"
     inkscape:window-maximized="1" />
  <metadata
     id="metadata3220">
    <rdf:RDF>
      <cc:Work
         rdf:about="">
        <dc:format>image/svg+xml</dc:format>
        <dc:type
           rdf:resource="http://purl.org/dc/dcmitype/StillImage" />
        <dc:title />
      </cc:Work>
    </rdf:RDF>
  </metadata>
  <g
     inkscape:label="Calque 1"
     inkscape:groupmode="layer"
     id="layer1"
     transform="translate(0,-1002.3622)">
    <path
       style="fill:#c87137;stroke:#000000;stroke-width:0.05550334px;stroke-linecap:butt;stroke-linejoin:miter;stroke-opacity:1"
       d="m 9.2813246,1052.2588 c 28.9481614,-0.116 25.0450374,0.1159 28.1892204,-0.232 9.74794,-6.6295 9.503662,-36.2747 5.095739,-34.2126 -4.983678,11.5168 -27.987648,-6.5 -35.4533608,3.3634 -3.9431503,14.2122 2.1684014,31.0812 2.1684014,31.0812 z"
       id="path5046"
       inkscape:connector-curvature="0"
       sodipodi:nodetypes="ccccc" />
    <path
       style="fill:#ff9955;stroke:#000000;stroke-width:0.05550334px;stroke-linecap:butt;stroke-linejoin:miter;stroke-opacity:1"
       d="m 2.3940779,1018.0854 c 2.7731205,-2.7187 8.5861551,-14.7171 22.8249961,-14.9999 10.772785,-0.214 15.228829,3.3636 18.604439,6.6722 3.236486,3.1724 5.61106,6.032 5.619519,8.0547 0.01621,3.8723 -7.474351,1.8871 -9.261989,3.713 -16.415348,7.4444 -42.8345876,1.5697 -37.7869651,-3.44 z"
       id="path5048"
       inkscape:connector-curvature="0"
       sodipodi:nodetypes="cssscc" />
    <path
       style="fill:none;stroke:#000000;stroke-width:0.05550334px;stroke-linecap:butt;stroke-linejoin:miter;stroke-opacity:1"
       d="m 26.953797,1052.1428 c 0.251153,-3.4092 1.611498,-7.298 -0.650521,-13.4532 13.429477,-11.0217 11.873947,2.5823 9.866226,13.3372 z"
       id="path5050"
       inkscape:connector-curvature="0"
       sodipodi:nodetypes="cccc" />
    <path
       style="fill:#1a1a1a;fill-opacity:1;stroke:#160002;stroke-width:0.03767691;stroke-linejoin:round;stroke-miterlimit:4;stroke-opacity:1;stroke-dasharray:none"
       d="m 27.043183,1051.9573 c 0,-0.026 0.118797,-0.9789 0.263991,-2.1167 0.36656,-2.8724 0.435397,-4.2695 0.284755,-5.7797 -0.16502,-1.6544 -0.376198,-2.7441 -0.809824,-4.1794 l -0.351688,-1.1639 0.821379,-0.6482 c 3.302679,-2.607 6.047358,-3.7465 7.726996,-3.2082 0.567112,0.1818 1.338455,0.9254 1.656716,1.5971 0.573901,1.2117 0.652432,1.8064 0.6515,4.9352 -8.51e-4,3.1738 -0.07997,4.0016 -0.776387,8.1347 l -0.393636,2.3365 -0.389832,0.069 c -0.434215,0.077 -8.68397,0.099 -8.68397,0.024 z"
       id="path5052"
       inkscape:connector-curvature="0" />
    <path
       style="fill:#ff7f2a;stroke:#000000;stroke-width:0.05550334px;stroke-linecap:butt;stroke-linejoin:miter;stroke-opacity:1"
       d="m 15.786529,1005.1731 c -22.3043549,17.4888 -2.826001,17.7429 -2.385243,19.2517 -7.2136371,-0.276 -15.7735188,-3.0851 -12.1430467,-5.2188 3.095533,-8.6772 8.702082,-10.4651 14.5282897,-14.0329 z"
       id="path5056"
       inkscape:connector-curvature="0"
       sodipodi:nodetypes="cccc" />
    <path
       style="fill:#333333;stroke:#000000;stroke-width:0.05550334px;stroke-linecap:butt;stroke-linejoin:miter;stroke-opacity:1"
       d="m 27.279058,1037.7619 c 2.266369,-0.8791 5.49932,-3.7884 8.023084,-3.0154 3.709617,2.272 2.133472,10.2307 0.650521,17.1644 0.547136,-6.5021 3.047973,-20.192 -8.673605,-14.149 z"
       id="path5060"
       inkscape:connector-curvature="0"
       sodipodi:nodetypes="cccc" />
  </g>
</svg>
