<?xml version="1.0" encoding="UTF-8" standalone="no"?>
<!-- Created with Inkscape (http://www.inkscape.org/) -->

<svg
   xmlns:dc="http://purl.org/dc/elements/1.1/"
   xmlns:cc="http://creativecommons.org/ns#"
   xmlns:rdf="http://www.w3.org/1999/02/22-rdf-syntax-ns#"
   xmlns:svg="http://www.w3.org/2000/svg"
   xmlns="http://www.w3.org/2000/svg"
   xmlns:sodipodi="http://sodipodi.sourceforge.net/DTD/sodipodi-0.dtd"
   xmlns:inkscape="http://www.inkscape.org/namespaces/inkscape"
   width="210mm"
   height="297mm"
   id="svg3304"
   version="1.1"
   inkscape:version="0.48.4 r9939"
   sodipodi:docname="Nouveau document 12">
  <defs
     id="defs3306" />
  <sodipodi:namedview
     id="base"
     pagecolor="#ffffff"
     bordercolor="#666666"
     borderopacity="1.0"
     inkscape:pageopacity="0.0"
     inkscape:pageshadow="2"
     inkscape:zoom="0.35"
     inkscape:cx="375"
     inkscape:cy="520"
     inkscape:document-units="px"
     inkscape:current-layer="layer1"
     showgrid="false"
     inkscape:window-width="486"
     inkscape:window-height="383"
     inkscape:window-x="65"
     inkscape:window-y="24"
     inkscape:window-maximized="0" />
  <metadata
     id="metadata3309">
    <rdf:RDF>
      <cc:Work
         rdf:about="">
        <dc:format>image/svg+xml</dc:format>
        <dc:type
           rdf:resource="http://purl.org/dc/dcmitype/StillImage" />
        <dc:title></dc:title>
      </cc:Work>
    </rdf:RDF>
  </metadata>
  <g
     inkscape:label="Calque 1"
     inkscape:groupmode="layer"
     id="layer1">
    <path
       sodipodi:nodetypes="ccccc"
       inkscape:connector-curvature="0"
       id="path5062"
       d="m 679.14423,960.74655 c -539.4215,-2.0203 -466.6905,2.0203 -525.2794,-4.04061 -181.643598,-115.4864 -177.091698,-631.91345 -94.954296,-595.99 92.866196,200.62691 521.523296,-113.23052 660.639796,58.58885 73.4768,247.58197 -40.4061,541.44176 -40.4061,541.44176 z"
       style="fill:#c87137;stroke:#000000;stroke-width:1px;stroke-linecap:butt;stroke-linejoin:miter;stroke-opacity:1" />
    <path
       sodipodi:nodetypes="cssscc"
       inkscape:connector-curvature="0"
       id="path5064"
       d="M 807.48153,365.43833 C 755.80703,318.07835 647.48663,109.0637 382.15933,104.1372 181.41873,100.40992 98.384634,162.73204 35.483334,220.37007 -24.825568,275.63259 -69.073468,325.44746 -69.231068,360.68498 c -0.3016,67.45652 139.277402,32.87269 172.588298,64.68073 305.8845,129.68363 798.1819,27.34379 704.1243,-59.92738 z"
       style="fill:#ff9955;stroke:#000000;stroke-width:1px;stroke-linecap:butt;stroke-linejoin:miter;stroke-opacity:1" />
    <path
       sodipodi:nodetypes="cccc"
       inkscape:connector-curvature="0"
       id="path5066"
       d="m 349.83443,958.72625 c -4.68,-59.38704 -30.0287,-127.13275 12.1219,-234.35539 -250.2456,-192.002 -221.2597,44.98192 -183.8478,232.33508 z"
       style="fill:none;stroke:#000000;stroke-width:1px;stroke-linecap:butt;stroke-linejoin:miter;stroke-opacity:1" />
    <path
       inkscape:connector-curvature="0"
       id="path5068"
       d="m 348.16883,955.49407 c 0,-0.45887 -2.2137,-17.05063 -4.9192,-36.87057 -6.8305,-50.03799 -8.1133,-74.37782 -5.3062,-100.68599 3.075,-28.81908 7.0101,-47.80398 15.0903,-72.80348 l 6.5534,-20.27555 -15.3056,-11.29399 c -61.5423,-45.41196 -112.6868,-65.26288 -143.9853,-55.88562 -10.5675,3.16612 -24.9408,16.12045 -30.8713,27.8237 -10.6941,21.10377 -12.1574,31.46649 -12.14,85.96793 0.018,55.289 1.4898,69.70972 14.4671,141.71272 l 7.3351,40.69745 7.2642,1.20164 c 8.0911,1.33843 161.8175,1.72962 161.8175,0.41176 z"
       style="fill:#1a1a1a;fill-opacity:1;stroke:#160002;stroke-width:0.67882252;stroke-linejoin:round;stroke-miterlimit:4;stroke-opacity:1;stroke-dasharray:none" />
    <path
       sodipodi:nodetypes="cccc"
       inkscape:connector-curvature="0"
       id="path5072"
       d="m 343.77353,708.20842 c -42.2317,-15.31058 -102.4746,-65.99496 -149.5026,-52.52793 -69.1252,39.57964 -39.7553,178.21836 -12.1218,299.00515 -10.1954,-113.26593 -56.7961,-351.74757 161.6244,-246.47722 z"
       style="fill:#333333;stroke:#000000;stroke-width:1px;stroke-linecap:butt;stroke-linejoin:miter;stroke-opacity:1" />
  </g>
</svg>
